<svg width="178" height="148" viewBox="0 0 178 148" fill="none" xmlns="http://www.w3.org/2000/svg">
<path d="M13.7758 136.473C14.3898 125.91 15.0037 115.389 15.6177 104.905C16.3991 97.1105 17.1875 89.3519 17.9759 81.6361C18.241 79.3156 19.8806 77.7782 22.2179 77.7924C25.0715 77.8066 26.7111 79.0736 26.6204 82.1984C24.3459 102.065 22.0714 122.173 19.8109 142.551C19.5527 144.801 17.8224 146.559 15.4991 146.879C14.006 147.078 12.5129 147.292 11.0199 147.505C8.69653 147.84 6.9802 146.53 6.72205 144.281C4.48941 123.902 2.2498 103.246 0.00321227 82.2625C-0.0805115 79.1377 1.47536 77.7212 4.32196 77.7283C6.65228 77.7355 8.38257 79.3228 8.64072 81.6788C9.41516 89.5441 10.1826 97.3667 10.9571 105.154C11.5501 115.674 12.1501 126.159 12.7432 136.601C13.0851 136.558 13.4339 136.522 13.7758 136.48V136.473Z" fill="#BAD65B"/>
<path d="M36.3742 140.857C36.1998 143.199 34.3788 144.786 32.0485 145.035C29.2019 145.342 27.646 144.174 27.7367 141.213C29.9833 121.162 32.2299 101.346 34.4765 81.7357C34.7416 79.4865 36.4719 77.9917 38.8022 77.9988C40.4139 77.9988 42.0256 78.0059 43.6442 78.0131C45.9746 78.0202 47.7048 79.5007 47.956 81.7073C50.1468 100.911 52.3376 119.959 54.5283 138.878C54.5283 141.882 52.9655 143.192 50.1119 143.405C47.7746 143.576 46.0513 142.331 45.8769 140.046C45.535 135.839 45.2001 131.625 44.8582 127.411C42.4093 127.561 39.9604 127.725 37.5115 127.903C37.1277 132.209 36.751 136.53 36.3672 140.857H36.3742ZM44.0977 119.254C43.3093 109.083 42.514 98.8828 41.7256 88.6472C41.3767 88.6472 41.0349 88.6544 40.686 88.6615C39.8627 98.9326 39.0394 109.239 38.2161 119.582C40.1767 119.468 42.1372 119.361 44.0908 119.261L44.0977 119.254Z" fill="#BAD65B"/>
<path d="M58.268 124.934C58.268 122.507 60.0053 120.827 62.6007 120.742C65.1961 120.657 66.9264 122.215 66.9264 124.621C66.9264 127.027 66.9264 129.433 66.9195 131.839C66.9195 133.604 68.4753 134.985 70.38 134.928C72.2848 134.864 73.8476 133.383 73.8476 131.632C73.8476 131.099 73.8476 130.565 73.8476 130.038C73.8476 123.091 73.8476 120.699 69.0963 114.713C67.1078 112.222 65.1194 109.723 63.131 107.211C58.7285 101.588 58.3029 96.9752 58.3099 90.1918C58.3099 89.6509 58.3099 89.117 58.3099 88.5761C58.3168 81.693 63.424 77.2728 70.4219 77.3155C77.4198 77.3511 82.52 81.75 82.513 88.5049C82.513 90.8894 82.513 93.281 82.513 95.6655C82.513 98.05 80.7827 99.6444 78.1873 99.6587C75.5918 99.6729 73.8616 98.0927 73.8685 95.694C73.8685 93.2952 73.8685 90.9036 73.8685 88.5049C73.8685 86.7468 72.3127 85.3089 70.4149 85.3089C68.5102 85.3089 66.9543 86.7539 66.9543 88.5191C66.9543 89.053 66.9543 89.5868 66.9543 90.1207C66.9543 95.331 67.1148 98.8686 70.8335 103.545C72.7941 106.001 74.7546 108.449 76.7082 110.898C82.2409 117.774 82.506 121.667 82.4991 129.86C82.4991 130.394 82.4991 130.921 82.4991 131.454C82.4991 138.216 77.3849 142.651 70.3661 142.914C63.3472 143.192 58.2471 139.078 58.254 132.195C58.254 129.767 58.254 127.347 58.261 124.92L58.268 124.934Z" fill="#BAD65B"/>
<path d="M97.3182 137.96C97.3182 140.345 95.5879 141.911 92.9855 141.904C90.3831 141.904 88.6528 140.323 88.6528 137.939C88.6528 119.297 88.6528 100.655 88.6528 82.0133C88.6528 79.6288 90.3831 78.0486 92.9715 78.0629C95.567 78.0771 97.2903 79.6715 97.2972 82.056C97.2972 89.843 97.2973 97.6229 97.3042 105.41C99.6136 105.424 101.916 105.446 104.225 105.474C104.225 97.6799 104.211 89.8858 104.211 82.0916C104.211 79.7071 105.935 78.1198 108.53 78.134C111.126 78.1483 112.849 79.7498 112.856 82.1415C112.877 100.869 112.898 119.603 112.912 138.33C112.912 140.729 111.181 142.252 108.586 142.174C105.984 142.096 104.253 140.466 104.253 138.081C104.253 129.86 104.239 121.646 104.239 113.425C101.93 113.389 99.6206 113.368 97.3182 113.346C97.3182 121.553 97.3182 129.76 97.3252 137.967L97.3182 137.96Z" fill="#BAD65B"/>
<path d="M120.203 82.1842C120.203 79.7783 121.926 78.1839 124.514 78.1981C127.11 78.2124 128.84 79.8352 128.84 82.2553C128.868 101.21 128.896 120.158 128.924 139.113C128.924 141.541 127.201 143.035 124.605 142.879C122.01 142.722 120.272 141.035 120.272 138.629C120.252 119.817 120.224 100.997 120.203 82.1842Z" fill="#BAD65B"/>
<path d="M156.888 123.938C155.722 113.403 154.557 102.926 153.392 92.5052C153.392 89.174 153.385 85.8428 153.378 82.5116C153.378 80.0132 155.102 78.3618 157.69 78.3689C160.285 78.3832 162.009 80.0844 162.016 82.6184C162.037 102.677 162.058 122.735 162.079 142.793C162.079 144.907 160.62 146.16 158.464 145.897C158.353 145.882 158.234 145.868 158.123 145.854C156.141 145.619 154.502 144.267 153.978 142.373C152.157 136.038 150.336 129.76 148.515 123.539C147.064 116.656 145.613 109.816 144.169 103.025C143.82 103.011 143.478 102.997 143.129 102.983C143.715 110.336 144.301 117.71 144.894 125.098C144.901 130.173 144.908 135.248 144.915 140.316C144.915 142.786 143.192 144.267 140.603 144.032C138.008 143.804 136.278 142.039 136.278 139.597C136.25 120.279 136.215 100.968 136.187 81.6503C136.187 79.7783 137.652 78.4045 139.641 78.4117C140.185 78.4117 140.736 78.4117 141.28 78.4188C143.876 78.433 144.999 79.9207 145.78 82.3977C146.994 86.4478 148.215 90.5193 149.429 94.6121C151.571 104.25 153.72 113.987 155.862 123.831C156.204 123.86 156.553 123.888 156.895 123.917L156.888 123.938Z" fill="#BAD65B"/>
<path d="M169.363 82.7251C169.363 80.1555 171.086 78.4544 173.681 78.4686C176.277 78.4828 178 80.2339 178 82.8532V144.231C178 146.851 176.284 148.324 173.702 147.94C171.121 147.555 169.404 145.605 169.397 143.042C169.383 122.934 169.369 102.833 169.356 82.7251H169.363Z" fill="#BAD65B"/>
<path d="M106.758 9.2468L89.783 26.5647C88.576 27.7961 86.5038 26.9277 86.5038 25.1767V3.36027C86.5038 1.48114 88.0179 -0.0349756 89.8598 0.000614011H89.9435C91.7366 0.0362036 93.1738 1.53097 93.1738 3.36027V13.5033L102.028 4.47067C103.018 3.45993 104.532 3.19656 105.795 3.82294L105.865 3.85853C107.902 4.86216 108.356 7.61679 106.758 9.2468Z" fill="#BAD65B"/>
<path d="M124.319 42.1743H101.56C99.8508 42.1743 98.9927 40.0674 100.2 38.8289L118.158 20.5074C119.735 18.8987 122.393 19.3258 123.412 21.3473L123.447 21.4184C124.103 22.7139 123.859 24.2941 122.847 25.3262L113.002 35.3767H124.319C126.119 35.3767 127.584 36.8501 127.605 38.6865V38.7719C127.633 40.644 126.154 42.1743 124.319 42.1743Z" fill="#BAD65B"/>
<path d="M116.058 15.9234L93.8855 38.5442C93.425 39.014 93.1738 39.6403 93.1738 40.3023V65.8129C93.1738 67.6921 91.6808 69.2153 89.8388 69.2153C87.9969 69.2153 86.5038 67.6921 86.5038 65.8129V37.8395C86.5038 36.9569 86.8457 36.1098 87.4597 35.4835L111.335 11.1188C112.612 9.81623 114.677 9.802 115.968 11.0903L116.023 11.1473C117.335 12.4499 117.349 14.5995 116.051 15.9234H116.058Z" fill="#5D8A3D"/>
<path d="M82.3037 31.5615C82.3037 33.3054 80.2385 34.1809 79.0245 32.9495L62.1193 15.7028C60.8495 14.4073 60.8355 12.279 62.1263 11.0049C62.1612 10.9693 62.203 10.9337 62.2379 10.8982C63.5077 9.65964 65.5171 9.70946 66.759 10.9765L75.7384 20.1372V4.69844C75.7384 3.22503 76.6942 1.92957 78.0826 1.50961L78.1663 1.48114C80.2385 0.861883 82.3037 2.44918 82.3037 4.64862V31.5615Z" fill="#BAD65B"/>
<path d="M77.1756 42.1743H53.6841C51.8492 42.1743 50.3701 40.644 50.391 38.7719V38.6865C50.4189 36.8501 51.8841 35.3767 53.6771 35.3767H65.7264L55.4144 24.8635C54.3748 23.8029 54.1376 22.1801 54.8353 20.8632L54.8772 20.785C55.9098 18.8133 58.5192 18.4218 60.0681 20.002L78.5361 38.8431C79.7431 40.0745 78.892 42.1885 77.1756 42.1885V42.1743Z" fill="#BAD65B"/>
<path d="M54.4097 62.4675C54.4097 62.7807 54.5841 62.9942 54.9679 62.9942H56.1051C56.6424 62.9942 57.0959 63.4355 57.0889 63.9836C57.0889 64.5602 56.6982 64.9445 56.133 64.9445H54.2213C53.1888 64.9445 52.498 64.2399 52.498 63.2434V50.303C52.498 49.762 52.9236 49.3278 53.4539 49.3278H56.1051C56.6424 49.3278 57.0959 49.7691 57.0889 50.3172C57.0889 50.8938 56.7051 51.2781 56.133 51.2781H54.4097V56.0044H55.7214C56.2586 56.0044 56.7121 56.4458 56.7051 56.9938C56.7051 57.5704 56.3214 57.9547 55.7493 57.9547H54.4097V62.4675Z" fill="#BAD65B"/>
<path d="M57.8494 60.6524C57.8494 60.0688 58.2261 59.6844 58.7913 59.6773C59.3285 59.6773 59.7611 60.1328 59.7611 60.6809V62.4106C59.7611 62.8376 60.1029 63.1935 60.5285 63.1935C60.9541 63.1935 61.296 62.8448 61.296 62.4106V62.0191C61.296 60.3179 61.296 59.7342 60.2425 58.2537L58.9238 56.3959C57.9471 55.0079 57.8494 53.8975 57.8494 52.2604V51.8689C57.8494 50.2104 58.9797 49.1356 60.5285 49.1356C62.0774 49.1356 63.2077 50.2104 63.2077 51.8689V53.5986C63.2077 54.1467 62.7751 54.6093 62.2379 54.6022C61.6728 54.6022 61.296 54.2036 61.296 53.627V51.8689C61.296 51.4419 60.9541 51.0859 60.5285 51.0859C60.1029 51.0859 59.7611 51.4347 59.7611 51.8689V52.2604C59.7611 53.5274 59.796 54.3887 60.6192 55.5418L61.917 57.3568C63.1449 59.058 63.2007 60.0118 63.2007 62.0191V62.4106C63.2007 64.069 62.0704 65.1438 60.5216 65.1438C58.9727 65.1438 57.8424 64.069 57.8424 62.4106V60.6524H57.8494Z" fill="#BAD65B"/>
<path d="M64.7357 51.2781C64.1077 51.2781 63.7589 50.8226 63.8007 50.2104C63.8356 49.7122 64.2612 49.3278 64.7566 49.3278H68.2381C68.7335 49.3278 69.1591 49.7122 69.194 50.2104C69.2358 50.8226 68.887 51.2781 68.259 51.2781H67.4567V63.9765C67.4567 64.5246 67.0241 64.9873 66.4869 64.9801C65.9218 64.9801 65.545 64.5815 65.545 64.005V51.2781H64.7357Z" fill="#BAD65B"/>
<path d="M70.0591 50.303C70.0591 49.762 70.4847 49.3278 71.0149 49.3278H72.7383C74.2871 49.3278 75.4174 50.4026 75.4174 52.0611V62.2113C75.4174 63.8697 74.2871 64.9445 72.7383 64.9445H71.0149C70.4847 64.9445 70.0591 64.5104 70.0591 63.9694V50.303ZM72.7383 62.9942C73.1569 62.9942 73.5057 62.6455 73.5057 62.2113V52.0611C73.5057 51.634 73.1639 51.2781 72.7383 51.2781H71.9708V62.9942H72.7383Z" fill="#BAD65B"/>
<path d="M77.4826 62.6028C78.1315 62.6028 78.6687 63.0939 78.6687 63.8128C78.6687 64.5317 78.1315 65.0229 77.4826 65.0229C76.8337 65.0229 76.2965 64.5317 76.2965 63.8128C76.2965 63.0939 76.8337 62.6028 77.4826 62.6028Z" fill="#BAD65B"/>
<path d="M102.802 53.0363H102.021C101.525 53.0363 101.274 52.7231 101.274 52.2533C101.274 51.8405 101.463 51.4703 102.042 51.4703C102.823 51.4703 103.053 51.2354 103.116 50.3599L103.137 50.0681C103.158 49.6481 103.43 49.3065 103.884 49.2851C104.337 49.2638 104.721 49.6695 104.721 50.1464V63.1437H105.181C105.781 63.1437 106.13 63.5494 106.095 64.0762C106.06 64.5673 105.628 64.9445 105.146 64.9445H102.195C101.735 64.9445 101.337 64.5958 101.288 64.126C101.232 63.5565 101.581 63.1437 102.223 63.1437H102.816V53.0292L102.802 53.0363Z" fill="#BAD65B"/>
<path d="M110.491 57.0365H110.26C109.974 58.1113 109.34 58.695 108.481 58.695C107.372 58.695 106.779 57.8337 106.779 56.4671V51.8618C106.779 50.2033 107.909 49.1285 109.458 49.1285C111.007 49.1285 112.137 50.2033 112.137 51.8618V62.4035C112.137 64.0619 111.007 65.1367 109.458 65.1367C107.909 65.1367 106.779 64.0619 106.779 62.4035V61.2646C106.779 60.7165 107.212 60.2538 107.749 60.261C108.314 60.261 108.691 60.6524 108.691 61.2361V62.4106C108.691 62.8376 109.033 63.1935 109.458 63.1935C109.884 63.1935 110.226 62.8448 110.226 62.4106V58.937L110.491 57.0437V57.0365ZM110.226 55.8051V51.8618C110.226 51.4347 109.884 51.0788 109.458 51.0788C109.033 51.0788 108.691 51.4276 108.691 51.8618V55.9617C108.691 56.3817 109.012 56.7518 109.423 56.7447C109.891 56.7305 110.219 56.3675 110.219 55.8051H110.226Z" fill="#BAD65B"/>
<path d="M116.937 57.0365C116.651 58.1113 116.017 58.695 115.158 58.695C114.049 58.695 113.456 57.8337 113.456 56.4671V51.8618C113.456 50.2033 114.586 49.1285 116.135 49.1285C117.684 49.1285 118.814 50.2033 118.814 51.8618V62.4035C118.814 64.0619 117.684 65.1367 116.135 65.1367C114.586 65.1367 113.456 64.0619 113.456 62.4035V61.2646C113.456 60.7165 113.889 60.2538 114.426 60.261C114.991 60.261 115.368 60.6524 115.368 61.2361V62.4106C115.368 62.8376 115.71 63.1935 116.135 63.1935C116.561 63.1935 116.903 62.8448 116.903 62.4106V59.0936L116.924 58.816L117.175 57.0365H116.937ZM116.903 55.8051V51.8618C116.903 51.4347 116.561 51.0788 116.135 51.0788C115.71 51.0788 115.368 51.4276 115.368 51.8618V55.9617C115.368 56.3817 115.689 56.7518 116.1 56.7447C116.568 56.7305 116.896 56.3675 116.896 55.8051H116.903Z" fill="#BAD65B"/>
<path d="M122.031 57.2358C122.317 56.161 122.945 55.5774 123.81 55.5774C124.919 55.5774 125.512 56.4315 125.512 57.7982V62.3963C125.512 64.0548 124.382 65.1225 122.84 65.1225C121.298 65.1225 120.168 64.0477 120.168 62.3963V51.876C120.168 50.2176 121.298 49.1499 122.84 49.1499C124.382 49.1499 125.512 50.2247 125.512 51.876V53.0434C125.512 53.627 125.128 54.0185 124.556 54.0185C123.984 54.0185 123.6 53.627 123.6 53.0434V51.876C123.6 51.449 123.259 51.1002 122.833 51.1002C122.407 51.1002 122.073 51.449 122.073 51.876V55.3852L121.807 57.2358H122.038H122.031ZM123.593 62.3963V58.3035C123.593 57.8765 123.307 57.5277 122.889 57.5277C122.414 57.5277 122.066 57.8978 122.066 58.4601V62.3963C122.066 62.8234 122.407 63.1722 122.826 63.1722C123.245 63.1722 123.593 62.8234 123.593 62.3963Z" fill="#BAD65B"/>
</svg>
