<?xml version="1.0" encoding="utf-8"?>
<!-- Generator: Adobe Illustrator 27.5.0, SVG Export Plug-In . SVG Version: 6.00 Build 0)  -->
<svg version="1.1" xmlns="http://www.w3.org/2000/svg" xmlns:xlink="http://www.w3.org/1999/xlink" x="0px" y="0px"
	 viewBox="0 0 2200 2200" style="enable-background:new 0 0 2200 2200;" xml:space="preserve">
<g id="background">
	<rect style="fill:#FFFFFF;" width="2200" height="2200"/>
</g>
<g id="Objects">
	<g>
		<g>
			<path style="fill:#1B1F2D;" d="M1865.02,1247.339c-24.952-6.357-50.324,8.719-56.678,33.667
				c-19.856,77.961-52.369,151.722-96.638,219.235c-43.557,66.43-97.32,125.066-159.795,174.28
				c-63.063,49.678-133.245,88.349-208.598,114.939c-77.958,27.511-159.819,41.46-243.311,41.46
				c-98.696,0-194.414-19.319-284.495-57.419c-87.032-36.811-165.204-89.52-232.345-156.661
				c-67.142-67.142-119.85-145.314-156.661-232.346c-22.074-52.189-37.829-106.272-47.19-161.728l35.499,35.499
				c9.102,9.102,21.032,13.653,32.962,13.653c11.93,0,23.86-4.551,32.962-13.653c18.204-18.204,18.204-47.719,0-65.924
				l-125.305-125.305c-18.204-18.204-47.719-18.204-65.924,0l-125.305,125.305c-18.204,18.204-18.204,47.719,0,65.924
				c18.204,18.203,47.719,18.203,65.924,0l52.436-52.436c9.451,73.943,28.865,145.919,58.076,214.983
				c41.511,98.145,100.929,186.278,176.603,261.951c75.673,75.674,163.807,135.091,261.952,176.602
				c101.635,42.989,209.572,64.785,320.812,64.785c94.087,0,186.387-15.737,274.337-46.773
				c85.006-29.997,164.16-73.608,235.264-129.619c70.397-55.453,130.98-121.531,180.068-196.395
				c49.933-76.152,86.614-159.372,109.019-247.345C1905.041,1279.068,1889.968,1253.693,1865.02,1247.339z"/>
			<path style="fill:#1B1F2D;" d="M2035.802,941.733c-18.205-18.204-47.718-18.204-65.924,0l-52.436,52.436
				c-9.451-73.943-28.865-145.918-58.076-214.982c-41.512-98.145-100.929-186.278-176.603-261.951
				c-75.673-75.673-163.807-135.091-261.951-176.602c-101.636-42.988-209.573-64.784-320.813-64.784
				c-94.09,0-186.393,15.738-274.345,46.776c-85.008,30-164.164,73.613-235.269,129.628
				c-70.398,55.458-130.981,121.538-180.069,196.406c-49.933,76.158-86.61,159.382-109.013,247.36
				c-6.353,24.948,8.722,50.323,33.67,56.676c24.95,6.356,50.324-8.722,56.676-33.67c19.853-77.965,52.365-151.73,96.633-219.247
				c43.558-66.434,97.32-125.074,159.796-174.29c63.064-49.68,133.247-88.353,208.602-114.947
				c77.96-27.512,159.824-41.462,243.319-41.462c98.695,0,194.413,19.319,284.495,57.42
				c87.032,36.811,165.204,89.519,232.346,156.66c67.141,67.141,119.849,145.314,156.66,232.346
				c22.074,52.189,37.83,106.272,47.191,161.727l-35.499-35.499c-18.205-18.204-47.718-18.204-65.924,0
				c-18.204,18.204-18.204,47.719,0,65.924l125.305,125.305c9.103,9.102,21.032,13.653,32.962,13.653s23.859-4.551,32.962-13.653
				l125.305-125.305C2054.007,989.453,2054.007,959.938,2035.802,941.733z"/>
		</g>
		<g>
			<path style="fill:#3AC430;" d="M1349.312,1342.306c-159.865,143.591-396.527,115.13-485.471,67.332
				c-28.092,55.159-51.058,113.461-69.712,171.144c-7.309,22.624-32.365,34.152-54.265,24.95c-0.263-0.118-0.526-0.237-0.776-0.329
				c-20.113-8.453-29.92-31.326-22.177-51.728c95.964-253.252,308.254-517.599,512.538-687.402
				c-190.876,110.095-374.587,278.045-489.441,452.554c-60.05-89.391-56.408-219.744,1.604-312.986
				c158.051-254.106,444.535-277.046,608.87-408.306c13.882-11.095,34.376-7.467,43.499,7.782
				C1508.572,796.839,1585.553,1130.108,1349.312,1342.306z"/>
		</g>
	</g>
</g>
</svg>
