<svg width="402" height="402" viewBox="0 0 402 402" fill="none" xmlns="http://www.w3.org/2000/svg">
<path d="M212.572 31.1937L218.82 11.7147C223.063 -1.51335 242.596 1.58065 242.544 15.4727L242.467 35.9287C242.423 47.7477 257.567 52.6687 264.478 43.0807L276.44 26.4857C284.563 15.2167 302.185 24.1947 297.842 37.3907L291.447 56.8227C287.753 68.0497 300.635 77.4087 310.171 70.4267L326.675 58.3407C337.883 50.1327 351.867 64.1176 343.66 75.3256L331.574 91.8297C324.591 101.366 333.951 114.248 345.178 110.554L364.61 104.159C377.806 99.8166 386.784 117.438 375.515 125.561L358.92 137.523C349.332 144.434 354.253 159.578 366.072 159.534L386.529 159.457C400.421 159.405 403.515 178.938 390.287 183.181L370.808 189.429C359.554 193.039 359.554 208.963 370.808 212.573L390.287 218.821C403.515 223.064 400.421 242.597 386.529 242.545L366.072 242.468C354.253 242.424 349.332 257.568 358.92 264.479L375.515 276.441C386.784 284.564 377.806 302.186 364.61 297.843L345.178 291.448C333.951 287.754 324.591 300.636 331.574 310.172L343.66 326.676C351.868 337.884 337.883 351.868 326.675 343.661L310.171 331.575C300.635 324.592 287.753 333.952 291.447 345.179L297.842 364.611C302.184 377.807 284.563 386.785 276.44 375.516L264.478 358.921C257.567 349.333 242.423 354.254 242.467 366.073L242.544 386.53C242.596 400.422 223.063 403.516 218.82 390.288L212.572 370.809C208.962 359.555 193.038 359.555 189.428 370.809L183.18 390.288C178.937 403.516 159.403 400.422 159.456 386.53L159.533 366.073C159.577 354.254 144.433 349.333 137.522 358.921L125.56 375.516C117.437 386.785 99.8159 377.807 104.158 364.611L110.553 345.179C114.248 333.952 101.365 324.592 91.8289 331.575L75.3249 343.661C64.1169 351.869 50.1329 337.884 58.3399 326.676L70.4259 310.172C77.4089 300.636 68.0489 287.754 56.8219 291.448L37.3899 297.843C24.1939 302.185 15.2159 284.564 26.4849 276.441L43.0799 264.479C52.6679 257.568 47.7469 242.424 35.9279 242.468L15.4719 242.545C1.5799 242.597 -1.5141 223.064 11.7139 218.821L31.1929 212.573C42.4469 208.963 42.4469 193.039 31.1929 189.429L11.7139 183.181C-1.5141 178.938 1.5799 159.404 15.4719 159.457L35.9279 159.534C47.7469 159.578 52.6679 144.434 43.0799 137.523L26.4859 125.56C15.2169 117.437 24.1949 99.8157 37.3909 104.158L56.8229 110.553C68.0499 114.248 77.4089 101.365 70.4269 91.8286L58.3409 75.3246C50.1329 64.1166 64.1179 50.1326 75.3259 58.3396L91.8299 70.4257C101.366 77.4087 114.248 68.0487 110.554 56.8217L104.159 37.3897C99.8169 24.1937 117.438 15.2157 125.561 26.4847L137.523 43.0797C144.434 52.6677 159.578 47.7467 159.534 35.9277L159.457 15.4717C159.405 1.57965 178.938 -1.51435 183.181 11.7137L189.429 31.1927C193.038 42.4477 208.962 42.4477 212.572 31.1937Z" fill="#13304E"/>
<path d="M89.112 72.7467L79.756 54.5547C73.403 42.2007 89.4029 30.5757 99.1889 40.4357L113.6 54.9547C121.926 63.3437 136.114 56.1147 134.221 44.4477L130.945 24.2547C128.72 10.5427 147.529 4.43071 153.789 16.8317L163.007 35.0937C168.333 45.6447 184.061 43.1537 185.866 31.4737L188.99 11.2567C191.111 -2.47229 210.888 -2.47229 213.01 11.2567L216.134 31.4737C217.939 43.1537 233.667 45.6447 238.993 35.0937L248.212 16.8317C254.472 4.43071 273.281 10.5417 271.056 24.2547L267.78 44.4477C265.887 56.1147 280.075 63.3437 288.401 54.9547L302.811 40.4357C312.597 30.5757 328.597 42.2007 322.244 54.5547L312.888 72.7467C307.483 83.2577 318.742 94.5167 329.253 89.1117L347.445 79.7557C359.799 73.4027 371.423 89.4027 361.564 99.1887L347.045 113.6C338.656 121.926 345.885 136.114 357.552 134.221L377.745 130.945C391.457 128.72 397.569 147.529 385.168 153.789L366.906 163.007C356.355 168.333 358.846 184.061 370.527 185.866L390.744 188.99C404.473 191.111 404.473 210.888 390.744 213.01L370.527 216.134C358.846 217.939 356.355 233.667 366.906 238.993L385.168 248.212C397.569 254.472 391.458 273.281 377.745 271.056L357.552 267.78C345.885 265.887 338.656 280.075 347.045 288.401L361.564 302.811C371.424 312.597 359.799 328.597 347.445 322.244L329.253 312.888C318.742 307.483 307.483 318.742 312.888 329.253L322.244 347.445C328.597 359.799 312.597 371.423 302.811 361.564L288.401 347.045C280.075 338.656 265.887 345.885 267.78 357.552L271.056 377.745C273.281 391.457 254.472 397.569 248.212 385.168L238.993 366.906C233.667 356.355 217.939 358.846 216.134 370.527L213.01 390.744C210.888 404.473 191.111 404.473 188.99 390.744L185.866 370.527C184.061 358.846 168.333 356.355 163.007 366.906L153.789 385.168C147.529 397.569 128.72 391.458 130.945 377.745L134.221 357.552C136.114 345.885 121.926 338.656 113.6 347.045L99.1889 361.564C89.4029 371.424 73.403 359.799 79.756 347.445L89.112 329.253C94.517 318.742 83.258 307.483 72.747 312.888L54.555 322.244C42.201 328.597 30.576 312.597 40.436 302.811L54.955 288.401C63.344 280.075 56.115 265.887 44.448 267.78L24.255 271.056C10.543 273.281 4.43096 254.472 16.832 248.212L35.094 238.993C45.645 233.667 43.154 217.939 31.474 216.134L11.257 213.01C-2.47204 210.888 -2.47204 191.111 11.257 188.99L31.474 185.866C43.154 184.061 45.645 168.333 35.094 163.007L16.832 153.789C4.43096 147.529 10.542 128.72 24.255 130.945L44.448 134.221C56.115 136.114 63.344 121.926 54.955 113.6L40.436 99.1887C30.576 89.4027 42.201 73.4027 54.555 79.7557L72.747 89.1117C83.257 94.5167 94.517 83.2567 89.112 72.7467Z" fill="#9FC86A"/>
<path d="M201 390.514C305.666 390.514 390.515 305.666 390.515 200.999C390.515 96.3331 305.666 11.4844 201 11.4844C96.3336 11.4844 11.4849 96.3331 11.4849 200.999C11.4849 305.666 96.3336 390.514 201 390.514Z" fill="#59843D"/>
<path d="M203.839 375.69C107.359 377.26 27.879 300.31 26.309 203.84C26.269 201.35 26.279 198.88 26.349 196.42C26.829 177.52 30.329 159.35 36.379 142.37C43.599 122.12 54.449 103.57 68.169 87.5301C80.619 72.9501 95.439 60.4401 112.049 50.6001C112.299 50.4501 112.549 50.3101 112.799 50.1601C132.679 38.5001 155.099 30.6601 179.059 27.6601C185.329 26.8701 191.699 26.4201 198.169 26.3101C200.539 26.2701 202.909 26.2801 205.259 26.3401C240.939 27.1901 274.049 38.7601 301.419 58.0301C333.089 80.2901 357.059 112.85 368.419 150.93C372.739 165.38 375.239 180.64 375.649 196.42C375.669 197 375.679 197.58 375.689 198.16C377.259 294.64 300.309 374.12 203.839 375.69Z" fill="#13304E"/>
<path d="M368.419 150.929C353.989 150.679 346.329 134.629 350.829 127.289C342.519 127.929 339.009 121.899 339.009 121.899L332.699 112.799C323.419 104.749 333.519 96.2793 333.519 96.2793C333.519 96.2793 325.059 94.2693 329.689 86.8793C319.619 89.5593 317.809 81.3793 317.809 81.3793C317.809 81.3793 310.159 83.9993 309.149 76.9493C300.489 71.1793 300.319 63.2093 301.419 58.0293C333.089 80.2893 357.059 112.849 368.419 150.929Z" fill="#7B8C9D"/>
<path d="M205.259 26.3401C201.529 35.5101 189.449 32.7501 189.449 32.7501C189.449 32.7501 191.789 40.2001 183.349 42.0101C175.479 43.7101 171.009 37.0801 171.009 37.0801C171.009 37.0801 170.609 42.1101 162.959 40.3001C165.779 43.5201 162.609 46.2601 162.609 46.2601L152.149 49.9201C152.149 49.9201 147.649 49.5601 147.049 45.5301C144.229 50.1701 141.009 44.7301 141.009 44.7301C141.009 44.7301 126.329 57.1101 112.799 50.1601C132.679 38.5001 155.099 30.6601 179.059 27.6601C185.329 26.8701 191.699 26.4201 198.169 26.3101C200.539 26.2701 202.909 26.2801 205.259 26.3401Z" fill="#7B8C9D"/>
<path d="M69.3989 112.8C70.6389 118.83 63.0889 121.9 63.0889 121.9C63.0889 121.9 66.5689 131.55 53.5989 136.13C55.8889 140.29 44.6989 148.38 36.3789 142.37C43.5989 122.12 54.4489 103.57 68.1689 87.5298C70.8189 88.8598 73.3389 91.3598 72.4189 95.9498C78.5189 99.2498 78.3389 108.55 69.3989 112.8Z" fill="#7B8C9D"/>
<path d="M203.475 47.666H199.341V57.168H203.475V47.666Z" fill="#FBB62D"/>
<path d="M220.629 42.0137H212.588V57.1677H220.629V42.0137Z" fill="#FBB62D"/>
<path d="M226.526 55.3828H185.738V98.0848H226.526V55.3828Z" fill="#FB9129"/>
<path d="M220.629 59.8457H192.754V62.6417H220.629V59.8457Z" fill="#FBB62D"/>
<path d="M220.629 64.1914H192.754V66.9874H220.629V64.1914Z" fill="#FBB62D"/>
<path d="M220.629 68.5376H192.754V71.3336H220.629V68.5376Z" fill="#FBB62D"/>
<path d="M220.629 72.8848H192.754V75.6808H220.629V72.8848Z" fill="#FBB62D"/>
<path d="M114.797 77.0436L109.152 80.5576L104.53 73.1336L112.29 73.0156L114.797 77.0436Z" fill="#FBD34C"/>
<path d="M124.294 71.1325L118.648 74.6465L114.027 67.2225L121.786 67.1035L124.294 71.1325Z" fill="#FBD34C"/>
<path d="M133.79 65.2214L128.145 68.7354L123.523 61.3114L131.283 61.1924L133.79 65.2214Z" fill="#FBD34C"/>
<path d="M136.106 61.3468L87.616 91.5259L117.145 138.971L165.634 108.792L136.106 61.3468Z" fill="#FBB62D"/>
<path d="M103.925 81.3758L87.6162 91.5264L117.145 138.971L133.454 128.82L103.925 81.3758Z" fill="#FB9129"/>
<path d="M120.359 79.3022L113.021 83.8691L116.89 90.0855L124.228 85.5186L120.359 79.3022Z" fill="#FB9129"/>
<path d="M130.96 72.7045L123.622 77.2715L127.491 83.4879L134.829 78.9209L130.96 72.7045Z" fill="#FB9129"/>
<path d="M125.92 88.2353L118.583 92.8022L122.451 99.0186L129.789 94.4517L125.92 88.2353Z" fill="#FB9129"/>
<path d="M136.522 81.6371L129.183 86.2046L133.052 92.421L140.391 87.8535L136.522 81.6371Z" fill="#FB9129"/>
<path d="M131.48 97.1684L124.142 101.735L128.011 107.952L135.349 103.385L131.48 97.1684Z" fill="#FB9129"/>
<path d="M142.082 90.5707L134.744 95.1377L138.613 101.354L145.951 96.7871L142.082 90.5707Z" fill="#FB9129"/>
<path d="M108.061 106.869C105.963 108.175 105.321 110.934 106.627 113.032L121.196 136.439L128.793 131.71L114.224 108.303C112.918 106.205 110.159 105.563 108.061 106.869Z" fill="#FBD34C"/>
<path d="M149.317 102.763L131.633 113.769L132.708 115.496L150.391 104.49L149.317 102.763Z" fill="#FBD34C"/>
<path d="M151.68 106.562L133.996 117.568L135.071 119.295L152.755 108.289L151.68 106.562Z" fill="#FBD34C"/>
<path d="M263.875 69.9081L254.18 64.0381L261.9 51.2881L268.064 62.9901L263.875 69.9081Z" fill="#FB9129"/>
<path d="M280.183 79.7821L270.488 73.9121L278.207 61.1621L284.371 72.8651L280.183 79.7821Z" fill="#FB9129"/>
<path d="M296.491 89.6561L286.796 83.7861L294.515 71.0361L300.679 82.7391L296.491 89.6561Z" fill="#FB9129"/>
<path d="M301.003 89.9465L252.148 60.3672L223.206 108.17L272.061 137.749L301.003 89.9465Z" fill="#FBB62D"/>
<path d="M268.58 70.3161L252.148 60.3672L223.206 108.17L239.638 118.118L268.58 70.3161Z" fill="#FB9129"/>
<path d="M260.349 72.3969L254.119 68.625L231.438 106.086L237.668 109.858L260.349 72.3969Z" fill="#FBB62D"/>
<path d="M289.366 88.5676L271.549 77.7803L269.64 80.9341L287.457 91.7215L289.366 88.5676Z" fill="#FBD34C"/>
<path d="M285.164 95.508L267.347 84.7207L265.438 87.8746L283.255 98.6619L285.164 95.508Z" fill="#FBD34C"/>
<path d="M183.874 97.8618L167.699 103.523L161.801 83.1838L158.121 70.5128L156.645 65.4258L154.817 59.1228L152.149 49.9178L162.604 46.2588L166.259 55.1178L168.76 61.1858L170.778 66.0828L175.803 78.2828L183.874 97.8618Z" fill="#FBD34C"/>
<path d="M168.76 61.1862L156.645 65.4262L154.817 59.1232L166.259 55.1182L168.76 61.1862Z" fill="#FB9129"/>
<path d="M175.803 78.283L161.801 83.184L158.121 70.513L170.778 66.083L175.803 78.283Z" fill="#FB9129"/>
<path d="M116.918 142.082L107.148 156.162L90.4319 143.161L80.0129 135.065L75.8319 131.814L70.6509 127.785L63.0869 121.901L69.4019 112.8L77.5619 117.826L83.1489 121.269L87.6579 124.048L98.8889 130.973L116.918 142.082Z" fill="#FBD34C"/>
<path d="M101.006 158.605L81.0129 151.494L76.8999 161.295L97.0119 169.377" fill="#FBB62D"/>
<path d="M299.033 158.605L319.026 151.494L323.139 161.295L303.026 169.377" fill="#FBB62D"/>
<path d="M83.1489 121.269L75.8319 131.814L70.6509 127.785L77.5619 117.826L83.1489 121.269Z" fill="#FB9129"/>
<path d="M98.8889 130.973L90.4319 143.161L80.0129 135.065L87.6579 124.048L98.8889 130.973Z" fill="#FB9129"/>
<path d="M285.181 142.082L294.951 156.162L311.668 143.161L322.086 135.065L326.267 131.814L331.448 127.785L339.012 121.901L332.698 112.8L324.538 117.826L318.95 121.269L314.441 124.048L303.211 130.973L285.181 142.082Z" fill="#FBD34C"/>
<path d="M281.467 128.352L296.337 116.09L301.689 122.045L288.548 134.823" fill="#FBB62D"/>
<path d="M318.95 121.269L326.267 131.814L331.448 127.785L324.538 117.826L318.95 121.269Z" fill="#FB9129"/>
<path d="M303.211 130.973L311.668 143.161L322.086 135.065L314.441 124.048L303.211 130.973Z" fill="#FB9129"/>
<path d="M203.839 375.69C107.359 377.26 27.879 300.31 26.309 203.84C26.269 201.35 26.279 198.88 26.349 196.42H375.649C375.669 197 375.679 197.58 375.689 198.16C377.259 294.64 300.309 374.12 203.839 375.69Z" fill="#9FC86A"/>
<path d="M201 315.123C264.028 315.123 315.123 264.028 315.123 201C315.123 137.972 264.028 86.877 201 86.877C137.972 86.877 86.877 137.972 86.877 201C86.877 264.028 137.972 315.123 201 315.123Z" fill="#59843D"/>
<path d="M201 300.994C256.225 300.994 300.994 256.225 300.994 201C300.994 145.775 256.225 101.006 201 101.006C145.775 101.006 101.006 145.775 101.006 201C101.006 256.225 145.775 300.994 201 300.994Z" fill="#13304E"/>
<path d="M175.936 128.176C177.18 128.176 178.188 127.168 178.188 125.924C178.188 124.68 177.18 123.672 175.936 123.672C174.692 123.672 173.684 124.68 173.684 125.924C173.684 127.168 174.692 128.176 175.936 128.176Z" fill="#9FC86A"/>
<path d="M190.158 124.324C190.158 126.451 188.433 128.176 186.306 128.176C184.179 128.176 182.454 126.451 182.454 124.324C182.454 122.197 184.178 120.472 186.306 120.472C188.434 120.473 190.158 122.197 190.158 124.324Z" fill="#9FC86A"/>
<path d="M197.976 132.128C200.75 132.128 202.999 129.879 202.999 127.105C202.999 124.33 200.75 122.082 197.976 122.082C195.202 122.082 192.953 124.33 192.953 127.105C192.953 129.879 195.202 132.128 197.976 132.128Z" fill="#9FC86A"/>
<path d="M207.771 141.436C210.762 141.436 213.187 139.011 213.187 136.02C213.187 133.028 210.762 130.604 207.771 130.604C204.78 130.604 202.355 133.028 202.355 136.02C202.355 139.011 204.78 141.436 207.771 141.436Z" fill="#9FC86A"/>
<path d="M216.597 151.146C216.597 154.751 213.675 157.673 210.07 157.673C206.465 157.673 203.543 154.751 203.543 151.146C203.543 147.541 206.465 144.619 210.07 144.619C213.675 144.619 216.597 147.541 216.597 151.146Z" fill="#9FC86A"/>
<path d="M176.726 131.122C133.728 141.171 146.704 202.752 146.704 202.752C159.886 167.697 200.074 171.096 200.142 148.923C200.178 136.871 188.462 128.379 176.726 131.122ZM150.833 178.318C152.234 144.619 175.936 144.619 175.936 144.619C175.936 144.619 158.679 151.146 150.833 178.318Z" fill="#9FC86A"/>
<path d="M140.879 254.708C141.956 254.086 143.333 254.455 143.955 255.532C144.577 256.609 144.208 257.986 143.131 258.608C142.054 259.23 140.677 258.861 140.055 257.784C139.433 256.707 139.802 255.33 140.879 254.708Z" fill="#9FC86A"/>
<path d="M133.508 245.142C135.35 244.078 137.706 244.71 138.77 246.552C139.834 248.394 139.202 250.75 137.36 251.814C135.518 252.878 133.162 252.246 132.098 250.404C131.035 248.561 131.666 246.205 133.508 245.142Z" fill="#9FC86A"/>
<path d="M129.496 232.631C131.899 231.244 134.971 232.067 136.358 234.47C137.745 236.873 136.922 239.945 134.519 241.332C132.116 242.719 129.044 241.896 127.657 239.493C126.27 237.091 127.093 234.018 129.496 232.631Z" fill="#9FC86A"/>
<path d="M132.123 219.351C134.713 217.855 138.025 218.743 139.521 221.333C141.016 223.923 140.129 227.235 137.539 228.731C134.949 230.227 131.637 229.339 130.141 226.749C128.646 224.159 129.533 220.846 132.123 219.351Z" fill="#9FC86A"/>
<path d="M143.517 208.834C146.639 207.032 150.631 208.101 152.434 211.223C154.236 214.345 153.167 218.337 150.045 220.14C146.923 221.943 142.931 220.873 141.129 217.751C139.325 214.629 140.395 210.637 143.517 208.834Z" fill="#9FC86A"/>
<path d="M146.111 253.376C176.313 285.589 223.156 243.561 223.156 243.561C186.206 249.672 169.056 213.169 149.82 224.197C139.365 230.191 137.868 244.584 146.111 253.376ZM199.93 252.202C170.045 267.838 158.194 247.312 158.194 247.312C158.194 247.312 172.476 258.993 199.93 252.202Z" fill="#9FC86A"/>
<path d="M273.639 220.355C272.562 219.733 272.193 218.356 272.815 217.279C273.437 216.202 274.814 215.833 275.891 216.455C276.968 217.077 277.337 218.454 276.715 219.531C276.093 220.608 274.716 220.977 273.639 220.355Z" fill="#9FC86A"/>
<path d="M269.039 231.522C267.197 230.458 266.565 228.103 267.629 226.26C268.693 224.418 271.048 223.786 272.891 224.85C274.733 225.914 275.365 228.269 274.301 230.112C273.237 231.954 270.882 232.586 269.039 231.522Z" fill="#9FC86A"/>
<path d="M260.211 241.252C257.808 239.865 256.985 236.792 258.372 234.39C259.759 231.988 262.832 231.164 265.234 232.551C267.637 233.938 268.46 237.01 267.073 239.413C265.686 241.815 262.614 242.639 260.211 241.252Z" fill="#9FC86A"/>
<path d="M247.396 245.616C244.806 244.121 243.918 240.808 245.414 238.218C246.909 235.628 250.221 234.74 252.812 236.236C255.402 237.731 256.29 241.044 254.794 243.634C253.299 246.224 249.987 247.111 247.396 245.616Z" fill="#9FC86A"/>
<path d="M232.592 241.008C229.47 239.206 228.4 235.214 230.203 232.091C232.005 228.969 235.998 227.899 239.12 229.702C242.242 231.504 243.312 235.497 241.509 238.619C239.706 241.741 235.714 242.81 232.592 241.008Z" fill="#9FC86A"/>
<path d="M269.869 216.491C282.666 174.229 222.846 154.676 222.846 154.676C246.613 183.62 223.576 216.724 242.745 227.869C253.164 233.926 266.376 228.025 269.869 216.491ZM241.942 170.469C270.426 188.532 258.575 209.058 258.575 209.058C258.575 209.058 261.551 190.849 241.942 170.469Z" fill="#9FC86A"/>
<path d="M57.6929 232.596C57.6929 232.596 18.3239 217.651 57.6929 174.218C95.6619 218.119 57.6929 232.596 57.6929 232.596Z" fill="#59843D"/>
<path d="M57.3818 239.247C56.8298 239.247 56.3818 238.8 56.3818 238.247V187.915C56.3818 187.363 56.8298 186.915 57.3818 186.915C57.9338 186.915 58.3818 187.363 58.3818 187.915V238.247C58.3818 238.8 57.9338 239.247 57.3818 239.247Z" fill="#13304E"/>
<path d="M57.5578 201.649L50.7318 195.142C50.3318 194.761 50.3168 194.128 50.6978 193.728C51.0788 193.329 51.7128 193.314 52.1118 193.694L57.4908 198.822L62.6188 193.443C62.9998 193.043 63.6338 193.029 64.0328 193.409C64.4328 193.79 64.4478 194.423 64.0668 194.822L57.5578 201.649Z" fill="#13304E"/>
<path d="M57.5578 212.189L50.7318 205.681C50.3318 205.3 50.3168 204.667 50.6978 204.267C51.0788 203.868 51.7128 203.853 52.1118 204.234L57.4908 209.361L62.6188 203.982C62.9998 203.584 63.6338 203.569 64.0328 203.949C64.4328 204.33 64.4478 204.963 64.0668 205.363L57.5578 212.189Z" fill="#13304E"/>
<path d="M57.5578 222.728L50.7318 216.22C50.3318 215.839 50.3168 215.206 50.6978 214.806C51.0788 214.407 51.7128 214.393 52.1118 214.773L57.4908 219.9L62.6188 214.521C62.9998 214.122 63.6338 214.108 64.0328 214.488C64.4328 214.869 64.4478 215.502 64.0668 215.902L57.5578 222.728Z" fill="#13304E"/>
<path d="M344.93 232.596C344.93 232.596 305.56 217.651 344.93 174.218C382.898 218.119 344.93 232.596 344.93 232.596Z" fill="#59843D"/>
<path d="M344.618 239.247C344.066 239.247 343.618 238.8 343.618 238.247V187.915C343.618 187.363 344.066 186.915 344.618 186.915C345.17 186.915 345.618 187.363 345.618 187.915V238.247C345.618 238.8 345.17 239.247 344.618 239.247Z" fill="#13304E"/>
<path d="M344.794 201.649L337.968 195.142C337.568 194.761 337.553 194.128 337.934 193.728C338.315 193.329 338.949 193.314 339.348 193.694L344.727 198.822L349.855 193.443C350.236 193.043 350.87 193.029 351.269 193.409C351.669 193.79 351.684 194.423 351.303 194.822L344.794 201.649Z" fill="#13304E"/>
<path d="M344.794 212.189L337.968 205.681C337.568 205.3 337.553 204.667 337.934 204.267C338.315 203.868 338.949 203.853 339.348 204.234L344.727 209.361L349.855 203.982C350.236 203.584 350.87 203.569 351.269 203.949C351.669 204.33 351.684 204.963 351.303 205.363L344.794 212.189Z" fill="#13304E"/>
<path d="M344.794 222.728L337.968 216.22C337.568 215.839 337.553 215.206 337.934 214.806C338.315 214.407 338.949 214.393 339.348 214.773L344.727 219.9L349.855 214.521C350.236 214.122 350.87 214.108 351.269 214.488C351.669 214.869 351.684 215.502 351.303 215.902L344.794 222.728Z" fill="#13304E"/>
</svg>
