<svg version="1.2" xmlns="http://www.w3.org/2000/svg" viewBox="0 0 1000 1000" width="1000" height="1000">
	<title>26210168_7204269-ai</title>
	<style>
		.s0 { fill: #c1ca00 } 
		.s1 { fill: #5a7700 } 
		.s2 { fill: #7fb000 } 
		.s3 { fill: #ffffff } 
	</style>
	<g id="BACKGROUND">
	</g>
	<g id="OBJECTS">
		<g id="&lt;Group&gt;">
		</g>
		<g id="&lt;Group&gt;">
			<g id="&lt;Group&gt;">
				<g id="&lt;Group&gt;">
					<path id="&lt;Path&gt;" class="s0" d="m946.7 174.8c-332.2 82.1-444.9-162.8-444.9-162.8 0 0-112.8 244.9-445 162.8 0 0-90.7 653.4 445 813.2 535.7-159.8 444.9-813.2 444.9-813.2z"/>
					<path id="&lt;Path&gt;" class="s1" d="m501.8 932.3c-193.1-62.8-317.9-204.1-371-420.4-26.8-109.2-28.2-212.3-25.6-273.3 27.9 4.1 55.1 6.2 81.4 6.2q0 0 0.1 0c163.5 0 262.5-77.8 315.1-138.9 52.5 61.1 151.5 138.9 315.1 138.9 26.3 0 53.6-2.1 81.5-6.2 2.5 60.9 1.1 164.1-25.7 273.3-53.1 216.3-177.8 357.6-370.9 420.4z"/>
				</g>
				<g id="&lt;Group&gt;">
					<path id="&lt;Path&gt;" class="s2" d="m501.8 718.4c-114.1 0-206.3-92.2-206.3-206.2 0-114.1 92.2-206.3 206.3-206.3 114 0 206.2 92.2 206.2 206.3 0 114-92.2 206.2-206.2 206.2z"/>
					<path id="&lt;Path&gt;" class="s3" d="m456.4 613.9q-0.2 0-0.4 0c-5.4-0.1-10.6-2.5-14.2-6.6l-66.6-75.1c-7.1-8-6.4-20.3 1.6-27.5 8.1-7.1 20.4-6.4 27.5 1.7l52.6 59.3 142.8-149.2c7.4-7.8 19.8-8.1 27.5-0.6 7.8 7.4 8.1 19.8 0.6 27.5l-157.4 164.5c-3.6 3.8-8.7 6-14 6z"/>
				</g>
			</g>
		</g>
	</g>
	<g id="TEXTS">
	</g>
</svg>