<svg version="1.2" xmlns="http://www.w3.org/2000/svg" viewBox="0 0 500 500" width="500" height="500">
	<title>4939706_2563346-svg</title>
	<defs>
		<clipPath clipPathUnits="userSpaceOnUse" id="cp1">
			<path d="m197.43 274.7c-15.92-29.21-24.05-43.92-40.04-73.16-33.95-0.92-50.85-1.35-83.99-1.71 10.46 6.33 15.7 9.47 26.18 15.79-2.59 4.46-3.86 6.66-6.41 11.17-23.39 40.24-3.75 71.34 40.17 72.02 11.27 0.14 23.76 0.58 38.35 1.06-12.84-1.62-20.04-8.67-13.78-18.95 5.32-8.86 7.98-13.28 13.35-22.04 10.48 6.32 15.71 9.47 26.17 15.82z"/>
		</clipPath>
		<clipPath clipPathUnits="userSpaceOnUse" id="cp2">
			<path d="m-9.95-113.17c14.29 11.87 35.66 9.42 56.67 3.69 37.75-10.29 56.52-15.99 93.91-28.29 12.7 42.03 19.03 63.03 31.71 105.07-27.34 8.93-41.13 12.88-68.91 19.67-17.67 4.3-36.97-3.5-51.24-20.92-25.03-32.38-37.49-48.33-62.14-79.22z"/>
		</clipPath>
		<clipPath clipPathUnits="userSpaceOnUse" id="cp3">
			<path d="m255.58 191.05c34.27-1.03 51.56-1.64 85.88-2.71 15.7-28.99 23.48-43.43 38.28-71.96-10.49 6.29-15.71 9.46-26.19 15.77-3.04-4.19-4.55-6.25-7.65-10.43-27.41-37.82-65.05-34.4-84.87 3.32-5.06 9.69-10.93 20.31-17.74 32.73 7.12-10.4 16.86-13.56 23.73-3.64 5.96 8.47 8.93 12.7 14.78 21.17-10.49 6.31-15.72 9.46-26.22 15.75z"/>
		</clipPath>
		<clipPath clipPathUnits="userSpaceOnUse" id="cp4">
			<path d="m234.42 170.25c0 0 54.31-0.19 72.15-41.37l19.02 12.41 2.55-18.66c0 0 27.98 2.52 53.57 39.65l-2.51 31.53h-143.79z"/>
		</clipPath>
		<clipPath clipPathUnits="userSpaceOnUse" id="cp5">
			<path d="m240.18 187.47c0.88 0 2.6 1.1 3.91 1.19 5.85 0.42 11.74-0.7 17.55-1.09 9.82-0.66 19.55-1.04 29.21-3.38 10.39-2.52 21.53-5.84 30.07-13.51 5.65-5.07 10.25-11.32 15.21-16.98 0.12-0.14 1.23 0.4 1.39 0.49 1.17 0.67 2.71 1.57 4 1.99 7.47 2.44 13.66 7.7 20.25 12.22 5.18 3.55 11.01 5.72 14.86 11.22 1.38 1.98 3.32 3.5 3.65 6.16 1.37 10.97-12.65 10.94-18.69 11.23-1.82 0.08-3.65 0.19-5.47 0.19h-6.35c-12.78 0-25.53-0.58-38.32-0.09-9.75 0.37-19.33 1.92-29.03 2.78-6.98 0.61-13.96 0.79-20.95 1.09-1.61 0.07-3.26 0.11-4.87 0.3q-2.3 0.27-4.6 0.49c-4.31 0.43-10.56 1.86-13.47-2.58-1.08-1.64-2.01-3.47-1.13-5.46"/>
		</clipPath>
		<clipPath clipPathUnits="userSpaceOnUse" id="cp6">
			<path d="m290.36 89.55c-15.21 2.06-27.31 18.67-37.86 36.83-18.99 32.71-28.52 49.31-47.48 82.01-28.26-16.15-42.38-24.2-70.64-39.07 13.82-23.64 20.74-35.7 34.58-59.96 8.82-15.35 24.31-25.33 41.89-25.22 31.82 1.2 47.75 2.33 79.51 5.41z"/>
		</clipPath>
		<clipPath clipPathUnits="userSpaceOnUse" id="cp7">
			<path d="m306.92 274.97c-17.37 28.44-26.05 42.85-43.4 71.37 17.12 28.22 25.67 42.26 42.86 69.52 0.06-11.9 0.06-17.83 0.1-29.73 5.31-0.24 7.92-0.37 13.25-0.67 47.86-2.15 64.93-34.62 42.32-70.87-5.82-9.27-12.04-19.72-19.32-31.89 5.35 11.35 2.93 20.96-9.45 21.27-10.62 0.33-15.93 0.5-26.49 0.74 0.04-11.9 0.05-17.84 0.13-29.74z"/>
		</clipPath>
		<clipPath clipPathUnits="userSpaceOnUse" id="cp8">
			<path d="m376.94 353.78c5.48-14.42-3.03-31.8-13.52-49.03-18.88-30.97-28.35-47.02-47.12-79.44 28.49-16.29 42.77-24.35 71.22-39.25 13.8 23.27 20.72 34.71 34.58 56.87 8.84 14.01 9.05 30.43-0.36 44.89-17.91 25.64-26.88 38.98-44.8 65.96z"/>
		</clipPath>
	</defs>
	<style>
		.s0 { fill: #006c77 } 
		.s1 { fill: #0098a7 } 
		.s2 { fill: #0099a7 } 
		.s3 { fill: #00b4c5 } 
		.s4 { fill: #003c3c } 
		.s5 { fill: #207375 } 
		.s6 { fill: #1c6566 } 
		.s7 { fill: #5aa89e } 
		.s8 { fill: #1e6566 } 
		.s9 { fill: #008a77 } 
		.s10 { fill: #00ae87 } 
		.s11 { fill: #005e5e } 
		.s12 { fill: #00c29b } 
		.s13 { fill: #00b3c5 } 
		.s14 { fill: #2e2e2e } 
		.s15 { fill: #ffffff } 
		.s16 { fill: #f0ece5 } 
		.s17 { fill: #347a91 } 
		.s18 { fill: #f0ebe5 } 
		.s19 { fill: #f4de9f } 
	</style>
	<g id="BACKGROUND">
		<g id="Layer">
			<g id="BACKGROUND_1_">
			</g>
		</g>
	</g>
	<g id="OBJECTS">
		<g id="OBJECTS_1_">
			<g id="Layer">
				<path id="Layer" class="s0" d="m197.4 274.7c-15.9-29.2-24-43.9-40-73.2-34-0.9-50.9-1.3-84-1.7 10.5 6.4 15.7 9.5 26.2 15.8-2.6 4.5-3.9 6.7-6.4 11.2-23.4 40.2-3.8 71.3 40.1 72 11.3 0.2 23.8 0.6 38.4 1.1-12.8-1.7-20-8.7-13.8-19 5.3-8.8 8-13.3 13.4-22 10.4 6.3 15.7 9.5 26.1 15.8z"/>
				<g id="Layer">
					<g id="Clip-Path" clip-path="url(#cp1)">
						<g id="Layer">
							<g id="Layer">
								<path id="Layer" fill-rule="evenodd" class="s1" d="m183 236.9c0.1 0.2 0.2-0.7 0-0.7-2.3 0.4-4.5 1.6-6.8 1.9-4.5 0.6-9.1 0.8-13.7 0.9-15.4 0.3-31-1.3-46.3 2.1-1.6 0.4-3.2 1.1-4.6 1.8-1.5 0.8-3 1.6-4.3 2.8-2.8 2.7 0.7 4.9 3.1 5.5 4.8 1.3 9.7 2 14.5 3.3 2.6 0.8 8.4 4.4 6 5.6-5.9 2.8-9.5 2.1-15.7 1.9-13.4-0.5-28.5-2.7-41.7 1.6-4.9 1.6-18.4 6-16.5 14.6 2.7 12 20 23.3 31 26.3 35.1 9.5 67.2 4.5 102.2-1.2 11.1-1.8 24.6-1.3 34.6-7.6 13.2-8.2 32.2-26.4 17.6-42.6-2.9-3.2-5.9-6.3-9.4-8.7-3.5-2.4-7.4-4.2-11.4-5.5z"/>
							</g>
						</g>
					</g>
				</g>
			</g>
			<path id="Layer" class="s2" d="m89.5 289c9.8 11.8 30.1 15.1 50.9 15.9 37.5 1.5 56.3 1.9 94 1.9-0.1 32.8-0.2 49.2-0.3 82-27.6 0-41.3-0.5-68.7-2.1-17.4-1.1-32.9-11.2-41.1-26.9-13.9-28.8-20.8-43.1-34.8-70.8z"/>
			<g id="Layer">
				<g id="Clip-Path" clip-path="url(#cp2)">
					<g id="Layer">
						<path id="Layer" fill-rule="evenodd" class="s3" d="m65.5 286.9c1-0.6 1-2.7 2.1-3.2 3.6-1.9 11.3 8 13.4 9.3 10.2 6.4 23.9 12.1 34.8 15.3 13.7 4 24.2 5.2 37.9 6.3 12.8 1 17.1-0.5 29.9 3.3 19.2 5.6 35.6 21.8 54.8 27.6 6 1.9 23.4 4 31.5 8.1 3.7 1.8 9.3 5 11.5 10 4.2 9.5-3.4 23-10 26.3-20.2 10.3-43.7 7.3-66.2 5.2-20.9-2-36.9-4.7-57.7-10.9-27.9-8.3-52.9-25.4-77.4-44.8z"/>
					</g>
				</g>
			</g>
			<g id="Layer">
				<path id="Layer" class="s4" d="m255.6 191c34.2-1 51.5-1.6 85.9-2.7 15.7-28.9 23.4-43.4 38.2-71.9-10.4 6.3-15.7 9.4-26.2 15.8-3-4.2-4.5-6.3-7.6-10.5-27.4-37.8-65.1-34.4-84.9 3.3-5 9.7-10.9 20.4-17.7 32.8 7.1-10.4 16.8-13.6 23.7-3.7 6 8.5 9 12.7 14.8 21.2-10.5 6.3-15.7 9.5-26.2 15.7z"/>
				<g id="Layer">
					<g id="Clip-Path" clip-path="url(#cp3)">
						<g id="Layer">
							<g id="Layer">
								<path id="Layer" fill-rule="evenodd" class="s5" d="m234.4 170.3c0 0 54.3-0.2 72.2-41.4l19 12.4 2.5-18.7c0 0 28 2.5 53.6 39.7l-2.5 31.5h-143.8z"/>
								<g id="Layer">
									<g id="Clip-Path" clip-path="url(#cp4)">
										<g id="Layer">
											<g id="Layer">
												<path id="Layer" fill-rule="evenodd" class="s6" d="m305.7 126c0-0.2 0 0.8 0 1 0 0.9 0.1 1.6 0.1 2.5 0 2.6-0.3 5.7-0.7 8.2-1.1 7.8-3.7 15.7-8.4 21.6-10.9 13.6-28.1 22.7-43.8 25.9-6.4 1.2-15.8 1.4-19.8-5.5-4.3-7.3 3.2-14.6 8.1-17.5 4.5-2.7 9.7-4.3 14.5-6 9-3.3 18-6.5 26.4-11.3 5.3-3 10.6-7.2 15-11.6 2.8-2.8 6-6.6 9.3-7.9"/>
											</g>
											<g id="Layer">
												<path id="Layer" fill-rule="evenodd" class="s6" d="m323.1 138.7c0.2 0.1-0.2 1.8-0.2 2.1-0.1 1.7 0.1 3.4 0.3 4.9 0.1 0.5 0.2 1.5 0.7 1.4 1.3-0.3 2.9-3.9 3.6-5.3 2.4-4.6 4.8-10.1 4.6-15.6-0.1-1.8 0.6-4-0.4-5.4-0.4-0.6-4.9-4-5-3.7-1.8 3.6-0.3 13.8-1.6 17.7-0.3 1.1-0.9 2.8-1.5 3.7-0.2 0.3-0.9 1.7-0.8 1.7"/>
											</g>
											<g id="Layer">
												<path id="Layer" fill-rule="evenodd" class="s6" d="m240.2 187.5c0.9 0 2.6 1.1 3.9 1.2 5.8 0.4 11.7-0.7 17.5-1.1 9.9-0.7 19.6-1.1 29.2-3.4 10.4-2.5 21.6-5.8 30.1-13.5 5.7-5.1 10.3-11.3 15.2-17 0.1-0.1 1.3 0.4 1.4 0.5 1.2 0.7 2.7 1.6 4 2 7.5 2.4 13.7 7.7 20.3 12.2 5.1 3.5 11 5.7 14.8 11.2 1.4 2 3.3 3.5 3.7 6.2 1.3 10.9-12.7 10.9-18.7 11.2-1.8 0.1-3.7 0.2-5.5 0.2h-6.3c-12.8 0-25.6-0.6-38.4-0.1-9.7 0.4-19.3 1.9-29 2.8-7 0.6-13.9 0.8-20.9 1.1-1.6 0-3.3 0.1-4.9 0.3q-2.3 0.2-4.6 0.5c-4.3 0.4-10.6 1.8-13.5-2.6-1.1-1.6-2-3.5-1.1-5.5"/>
												<g id="Layer">
													<g id="Clip-Path" clip-path="url(#cp5)">
														<g id="Layer">
															<path id="Layer" fill-rule="evenodd" class="s7" d="m334.8 151.5c-0.3-0.3 0.7 1.3 0.8 1.5 0.7 0.8 1.3 1.8 1.9 2.7 1 1.3 2.1 2.6 2.9 4.2 0.8 1.6 1.3 3.5 2.5 4.8 2 2.4 4.4 5.1 7.1 6.5 2.3 1.2 4.7 1.8 7.1 3 3.4 1.8 5.7 5.5 8.8 7.7 2.9 2 6.5 1.9 9.7 2 0.6 0.1 3.5 0 3.6-1.1 0.1-1.1-1.4-2.9-1.8-3.8-1.8-3.7-3.5-7-6.5-9.6-8.2-7.2-16.8-13.4-26.9-16-1.2-0.4-2.3-1-3.5-1.2-1-0.1-2 0.1-2.9-0.1-1.3-0.4-2.2-1-3.7-0.6"/>
														</g>
													</g>
												</g>
											</g>
											<g id="Layer">
												<path id="Layer" fill-rule="evenodd" class="s7" d="m306.6 128.1c0 0 0.6 1.9 0.8 2.3 0.6 1.5 1.4 3.1 2.4 4.3 2.3 3 4.4 5.8 7 8.4 1.1 1 2.2 2.1 3.6 2.6 1.2 0.5 3.6 2.5 4.6 0.5 1.7-3.3 0.1-14.1-2.2-16.6-1.2-1.4-3.3 3.5-4.7 2.4-1-0.8-2.1-1.5-3.1-2.2-1.4-1-3.3-2.5-5-2.9-1.4-0.3-2.8 1.2-4.1 0.7"/>
											</g>
											<g id="Layer">
												<path id="Layer" fill-rule="evenodd" class="s7" d="m327.7 121c-0.5 0.7 1.7 2.6 2.3 3.1 3.2 2.4 6.9 3.7 10 6.3 1.9 1.5 3.6 3.3 5.5 4.9 2.1 1.7 4.3 3.2 6.5 4.8 2.3 1.7 4.7 3.5 7.3 4.5 0.4 0.2 0.8 0.4 1.1 0.6 1.6 0.6 5.7 1.4 6.6-1 0.3-0.7-0.3-1.9-0.6-2.5-1-2-2.9-3.9-4.3-5.7-4-5-9-9.1-14.1-12.5-2.4-1.7-4.9-3.3-7.8-3.9-2.9-0.6-6.6-2.1-9.5-1.3-1.2 0.3-2.2 0.3-2.9 1.4-0.3 0.3-0.4 0.9-0.3 1.3 0 0.1 0.1 0.7 0.3 0.5"/>
											</g>
											<g id="Layer">
												<path id="Layer" fill-rule="evenodd" class="s8" d="m335 133.6c1.2 0 2.2 1.4 3.2 2.3 2.8 2.5 5.2 5.3 7.8 8 7.5 7.2 13.7 15.9 19.5 25l0.1 0.2q2 3.2 4 6.5l0.1 0.4c0 0-0.2 0.4-0.2 0.4l-0.4 0.1-0.3-0.2c-7.1-11.4-14.6-22.8-24.2-32.1-2.4-2.3-4.6-5-7-7.3-0.8-0.8-1.5-1.7-2.5-2.2-0.4-0.2-0.2 0-0.2 0l-0.3-0.1-0.2-0.4 0.1-0.4c0 0 0.3-0.2 0.5-0.2zm25.3 20.5c0.5 0.1 0.9 0.6 0.9 0.6 0.3 0.2 0.3 0.3 0.4 0.4 1.1 2.3 2.6 3.9 3.9 5.9q1.4 2.1 2.5 4.3c0 0 1.1 1.7 1.8 3.1 0.8 1.4 1.5 2.8 2.3 4.1l0.1 0.5c0 0-0.2 0.3-0.2 0.3 0 0-0.4 0-0.4 0.1 0 0 0.1 0.6-0.3 0.8-0.5 0.3-1.1-0.7-1.5-1.4l-0.4-0.7-0.1-0.3h-0.2c-0.2-0.5-0.2-0.7-0.2-0.7-2.1-3.8-4.1-7.6-6.2-11.4-0.2-0.4-0.3-0.5-0.4-0.7-0.7-1-1.4-1.9-1.7-3l-0.4-0.4c-0.3-0.3-0.6-0.6-0.5-1.1l0.5-0.4c0 0 0 0 0.1 0zm4.1-2.3c0.8 0 1.5 1.1 2 2.2 0.5 0.8 1.2 2.2 0.1 2.6-1.2 0.4-2.5-1.9-2.8-3.5-0.1-0.6 0-1.4 0.7-1.3z"/>
											</g>
											<g id="Layer">
												<path id="Layer" fill-rule="evenodd" class="s8" d="m311.2 148.7l0.3 0.2 0.2 0.4c0 7.1-0.9 14.3-3.5 20.9-2.6 6.7-7.1 12.2-12.8 15.7-3.7 2.3-7.8 4-11.8 5.1q-2.5 0.7-5.1 0.5l-0.7-0.2c-0.6-0.3-0.6-0.3-0.6-0.3l0.1-0.7c0.3-0.2 0.2-0.1 0.5-0.1l0.2-0.1q0.2 0 0.3 0c0.5 0 0.5 0 0.7 0 2 0.1 3.9-0.4 5.8-1.1 5.6-1.8 11.1-4.3 15.6-8.8 5.7-5.6 8.8-14.1 9.9-22.5q0.5-4.2 0.5-8.4l0.1-0.4c0 0 0.3-0.2 0.3-0.2zm24.6 9.4l0.1 0.3c0.1 1.4-1 2.4-1.7 3.6-3.2 5.8-7.6 10.7-12.7 14.6-3.1 2.4-6.4 4.3-9.7 6.1q-0.1 0-0.2 0.1c-2.3 1.2-4.5 2.8-6.9 3.8q-0.9 0.4-1.9 0.6h-0.4c0 0-0.2-0.3-0.2-0.4l0.1-0.4 0.3-0.3c3.5-1.1 6.6-3.5 9.8-5.3 7.5-4 14.8-9.5 19.2-16.5 0.9-1.4 1.7-2.9 2.6-4.2 0.3-0.5 0.7-1 0.8-1.5 0-0.2 0-0.1 0-0.1l0.1-0.4 0.3-0.2q0.2 0.1 0.4 0.2zm-8.1 21.1l0.1 0.4-0.2 0.3c-2.5 2.4-4.6 5.4-7.7 6.7q-0.9 0.4-1.8 0.4l-0.4-0.1-0.1-0.3 0.1-0.4c0.2-0.2 0.3-0.2 0.5-0.2 2.3-0.5 4.2-2.4 5.9-4.1q0.7-0.7 1.5-1.5c0 0 0.7-0.7 1.4-1.3l0.4-0.1q0.1 0.1 0.3 0.2zm4.4 2.5l0.2 0.3-0.1 0.4c0 0-0.4 0.3-0.2 0.2 0 0-1 1.2-1.7 2.2l-0.4 0.2-0.3-0.1-0.2-0.4 0.1-0.4c0.6-0.9 1.1-1.9 2-2.4 0.2-0.2 0.4-0.1 0.6 0zm-13.4-20.2l0.3 0.1 0.2 0.5c0 0.5 0 1.2 0 1.2-0.2 3.9-1.8 7.7-3.8 11.1-1.5 2.6-3.3 5.2-5.5 6.9-0.4 0.3-1 0.6-1.5 0.6l-0.4-0.1-0.1-0.4 0.1-0.3c0 0 0.9-0.4 1.5-0.9 4.3-3.9 7.4-9.8 8.4-15.6 0-0.6 0.1-1.4 0.1-1.4q0.1-0.1 0.1-0.3c0-0.3 0.1-0.8 0.1-0.8l0.1-0.5c0 0 0.3-0.1 0.4-0.1zm3.6 1.1c0.8 0.1 0.8 1.9-0.2 2.6-0.6 0.4-1.5-0.4-0.9-1.7 0.3-0.5 0.6-0.9 1.1-0.9z"/>
											</g>
										</g>
									</g>
								</g>
							</g>
						</g>
					</g>
				</g>
			</g>
			<g id="Layer">
				<path id="Layer" class="s9" d="m290.4 89.5c-15.3 2.1-27.4 18.7-37.9 36.9-19 32.7-28.5 49.3-47.5 82-28.2-16.2-42.4-24.2-70.6-39.1 13.8-23.6 20.7-35.7 34.6-59.9 8.8-15.4 24.3-25.4 41.8-25.3 31.9 1.2 47.8 2.4 79.6 5.4z"/>
				<g id="Layer">
					<g id="Clip-Path" clip-path="url(#cp6)">
						<g id="Layer">
							<g id="Layer">
								<path id="Layer" fill-rule="evenodd" class="s10" d="m99.6 155.2c17.3-15.9 48.8-22.7 71.9-18.9 13.7 2.3 26.6 8.9 40.8 8 21.9-1.3 37.9-18 57.5-25.6 12.6-5 33-9.5 40.8 5.7 13 25.2-16.5 55.7-32.2 71.3-17.9 17.8-38.6 33.8-63.8 39.7-38.2 9.1-95.4-1.4-128.4-20.6z"/>
							</g>
						</g>
					</g>
				</g>
			</g>
			<g id="Layer">
				<path id="Layer" class="s4" d="m306.9 275c-17.3 28.4-26 42.8-43.4 71.3 17.1 28.3 25.7 42.3 42.9 69.6 0-11.9 0-17.9 0.1-29.8 5.3-0.2 7.9-0.3 13.2-0.6 47.9-2.2 65-34.7 42.4-70.9-5.9-9.3-12.1-19.7-19.4-31.9 5.4 11.3 3 21-9.4 21.3-10.6 0.3-16 0.5-26.5 0.7 0-11.9 0-17.8 0.1-29.7z"/>
				<g id="Layer">
					<g id="Clip-Path" clip-path="url(#cp7)">
						<g id="Layer">
							<g id="Layer">
								<path id="Layer" fill-rule="evenodd" class="s11" d="m372.8 304.7c0.4 0.1-0.8 0.3-1.1 0.6-1 0.9-1.7 2-2.8 2.9-2.7 2.2-5.5 4.3-8.4 6.2-8.3 5.4-16.1 10-25.6 13.2-7.5 2.5-15.3 4.4-23 6.4-5.6 1.4-11.4 2.4-17 3.7-17.7 4.3-35.6 7.3-51.1 17.4-7.8 5.1-12.3 14.7-8.3 23.6 6.7 14.6 21.5 24.9 36.1 30.6 28.9 11.2 57.2 14.5 85.1-0.1 10.7-5.5 22.2-11.2 28.4-22 5.6-9.6 11.4-21 10.3-32.7-0.8-7.9-3.8-6.8-5.6-14.4-1-4.2 0.6-8.4 1.6-12.4z"/>
							</g>
							<g id="Layer">
								<path id="Layer" fill-rule="evenodd" class="s2" d="m224.4 338.8c1.2-0.3 2.1-1.7 3.4-1.8 10.3-0.7 23.7-0.3 33.7 2.3 9.5 2.5 16.9 9.1 26.9 10.5 6.8 1 19.9-1.9 26.6 2.6 7 4.8-8.3 7.7-8.7 7.9-1.4 0.8-3 3.9-0.8 5.2 2.9 1.7 8.2 1 11.2 1.3 7.9 0.9 36.5 1.1 39.5 15.2 0.3 1.3-0.6 2.7-0.7 4.1-0.2 2 0.4 7.2-1 9.2-3.3 4.7-11.4 10.7-16 13.9-10.3 7.2-14.3 10.5-26.6 13.7-5.6 1.4-16.5 1.1-22.2 1.5-17.7 1-29 3.1-45.1-4.2z"/>
							</g>
						</g>
					</g>
				</g>
			</g>
			<g id="Layer">
				<path id="Layer" class="s9" d="m376.9 353.8c5.5-14.4-3-31.8-13.5-49-18.9-31-28.3-47.1-47.1-79.5 28.5-16.3 42.8-24.3 71.2-39.2 13.8 23.2 20.7 34.7 34.6 56.8 8.8 14 9.1 30.5-0.4 44.9-17.9 25.7-26.8 39-44.8 66z"/>
				<g id="Layer">
					<g id="Clip-Path" clip-path="url(#cp8)">
						<g id="Layer">
							<g id="Layer">
								<path id="Layer" fill-rule="evenodd" class="s12" d="m306.7 222.6c-0.3-1.5 4.4 1.7 4.8 1.9 3 2 6.4 3.3 9.7 4.7 9.5 4.3 19.2 6.2 29.5 8 24.7 4.2 49.5 8.5 72.1 19.5 6.1 3 18.3 13.3 20.7 19.6 1 2.8 0.2 5.8 0 8.7-1.7 18.5-20.7 24.9-37.4 23.1-13.2-1.3-26.4-1.4-39.3-5.3-11.2-3.4-21.4-8.9-32.5-12.7-15.1-5.4-34.8-12.8-43.9-26.8z"/>
							</g>
							<g id="Layer">
								<path id="Layer" fill-rule="evenodd" class="s10" d="m317.7 266.6c0.5 3.2 5.6 0.4 8.3 0.6 9.6 0.5 19.1 1.4 28.8 1.5 29 0.3 60.6-5.3 87.1 3.8 6.6 2.3 12.5 6.1 18.7 9.3 11.6 6.1 18.2 13.6 9.5 32.2-10.1 21.8-27.9 33.8-46.3 38.5-37.2 9.6-77.6 12.9-103.2-11.9-15.8-15.3-25.1-47.5-3.2-75.3"/>
							</g>
						</g>
					</g>
				</g>
			</g>
			<g id="Layer">
				<path id="Layer" class="s9" d="m391 207.9c-0.2 0.1-0.3-0.2-0.6-0.3-3.1-3-5.4-6.8-7.1-10.8l-0.1-0.1-0.1-0.2c-0.1-0.1 0-0.3 0-0.3q-0.1-0.2-0.2-0.4-0.1-0.1-0.1-0.2c-1.8-0.3-3.8 0.3-5.7 0.7q-0.7 0.2-1.3 0.3c-3.3 0.7-6.6 1.3-9.9 0.9q-0.7-0.1-1.5-0.2c0 0-1.5-0.5-1-1.1 0.3-0.3 0.5-0.1 1-0.2 2.9-0.5 5.6-1.4 8.5-1.9 3.2-0.5 6.6-0.5 9.6 0.6q-0.1-0.1-0.1-0.3-1-2.7-1.7-5.5c0 0-0.6-0.6-1.2-0.9-3-1.7-6.5-2-9.8-3.2-2.4-0.9-5-1.8-6.9-3.7 0 0-0.1-0.1-0.1-0.1q-0.1 0-0.1-0.1 0 0 0-0.1-0.1-0.1-0.1-0.1c0-0.2 0-0.5 0.2-0.6 0.2-0.1 0.5 0 0.7 0.1 4.3 1.2 9 1.8 13.2 3.8 1.4 0.6 2.6 1.4 3.6 2.5 0 0-0.1-0.5-0.2-1q-0.5-2.9-0.9-5.9c-2.9-2.5-6.6-3.8-9.9-5.7-1.8-1-3.5-2-5.2-3.1-1.2-0.7-2.3-1.6-3-2.8-0.1-0.2-0.1-0.4-0.1-0.4 0-0.3 0.2-0.4 0.7-0.3 0.5 0.2 0.9 0.5 1.4 0.7 4.5 1.8 9.1 3.4 12.9 6.3 1.1 0.9 2.2 1.9 2.9 3.2q-0.4-3.3-0.7-6.6l-0.2-1c-0.1-0.2 0-0.2-0.5-0.6q-0.1-0.1-0.2-0.1c-0.2-0.1-0.3-0.2-0.3-0.2-2.1-1.4-4.5-2.3-6.5-3.7-2-1.4-3.8-3-5.5-4.7q0 0 0-0.1c-0.3-0.3-0.7-0.8-0.4-1.1 0.2-0.2 0.7 0 0.9 0.3 0 0 0.8 0.4 1.4 0.7 4 2.1 8.4 3.9 10.9 7.8h0.1c-0.3-2.6-0.7-5.3-1.1-7.9v-0.1c-0.6-1.6-1.4-3.1-2.1-4.7-1.5-3.2-2.9-6.4-3.8-9.8q-0.2-0.9-0.3-1.9l0.1-0.4c0.1-0.1 0.1-0.3 0.3-0.3 0.3 0 0.5 0.4 0.7 0.7 3.6 4.4 6 9.8 6.7 15.5 0.1 1.7 0.3 3.4 0 5.1q0 0.4 0.1 0.8c0 0.3 0 0.6 0 0.6q0.1-0.1 0.1-0.1c1.3-3.9 4.1-7.1 6.9-10.2 0.6-0.7 1.2-1.4 2-1.9 0.1-0.1 0.2-0.1 0.4-0.1 0.3 0.2 0.3 0.7 0.2 1q0 0.2 0 0.3c-0.5 3.5-3.4 6.4-5.9 9.2-1.3 1.6-2.6 3.2-3.3 5.1l0.1 0.8c0 0 0.1 0.1 0 0.3q0.2 2.3 0.5 4.6v0.1q0-0.1 0-0.2c0.7-2.8 2.4-5.4 4.5-7.5 1.5-1.6 3.4-3 5.1-4.5 0.1-0.1 0.1-0.2 0.4-0.4 0.1-0.1 0.5-0.2 0.6 0.3 0.2 0.4 0.1 0.4 0 0.7-0.1 0.6-0.4 1.3-0.7 1.9-1.8 3.4-4.2 6.7-6.7 9.7-1.1 1.3-2.2 2.7-2.7 4.3v0.1q0.3 2.2 0.6 4.4v0.2l0.1 0.1c0.9-3.4 3.8-6.1 6.6-8.8q0.8-0.9 1.7-1.7 0.5-0.4 0.9-0.8c0.4-0.3 0.7-0.7 1-1 0.2-0.2 0.6-0.3 0.8 0.1l0.1 0.3c0 0.1 0 0.1 0 0.2-0.1 2.2-1.7 4.1-3.1 5.8-1.8 2.3-4 4.5-5.8 6.9-0.6 0.9-1.2 1.9-1.5 2.9v0.1q0.7 2.8 1.6 5.5c0 0 0-0.5 0.2-1 0.6-2.1 1.9-4.1 3.3-5.9 1.8-2.2 3.7-4.3 5.5-6.5 0.2-0.2 0.4-0.5 0.4-0.5 0.2-0.1 0.4-0.2 0.5 0 0.2 0.2 0 0.6 0 0.6-1.5 4.5-3.8 8.6-6.7 12.5-0.8 1.1-1.7 2.1-2.2 3.4l-0.1 0.1c1.6 4 3.9 7.7 7 10.9l0.1 0.2c0.2 0.2 0.1 0.1 0.2 0.4 0 0.1 0.1 0.2-0.1 0.2z"/>
			</g>
			<g id="Layer">
				<path id="Layer" class="s9" d="m410.6 188.2q-0.1-0.1-0.1-0.3-0.1-0.6-0.2-1.2v-0.1c-0.3-2 0-4 1-5.9 0.9-1.8 2.2-3.4 3.5-4.9 0.2-0.2 0.4-0.4 0.7-0.1 0.3 0.3 0.4 0.8 0.6 1.2 0 0 0 0.4 0.1 0.7 0.2 2 0.1 4.1-0.9 6-1 2.1-2.7 3.9-4.3 5.6l-0.1 0.1-0.1 0.1q-0.3 0.6-0.7 1.1c2.6-2 5.6-3.3 8.8-3.4 0.8 0 1.7 0.1 2.5 0.5q0 0 0 0 0.1 0 0.1 0.1c0.1 0.1 0.3 0.2 0.1 0.4-0.3 0.7-1.1 1.2-1.8 1.7 0 0-0.5 0.4-0.9 0.6-2.1 1.5-4.6 2.4-7.1 2.1q-1.3-0.1-2.5-0.7c-1.2 1.8-2.5 3.6-3.7 5.3 2.9-1.7 6.4-2.3 9.6-1.6 0.8 0.2 1.6 0.4 2.3 1q0 0 0 0 0 0 0.1 0.1 0 0 0.1 0.1 0 0 0 0c0.1 0.1 0.2 0.3 0 0.5-0.6 0.7-1.5 1.1-2.4 1.6-1.8 1.1-3.9 1.8-6 1.7-1.7-0.1-3.3-0.7-4.5-1.7q-0.1-0.1-0.3-0.3-0.1 0.2-0.3 0.5c-1.5 2.1-2.8 4.4-3.9 6.7 0.3-0.2 0.5-0.3 0.8-0.4 2.6-1.3 5.6-1.7 8.4-1.2 1.2 0.2 2.4 0.6 3.2 1.3q0 0 0.1 0.1c0.2 0.2 0.4 0.6 0.4 0.6 0 0.3 0.1 0.1-0.3 0.3-2.7 1.8-5.9 2.6-9 2.4-1.4-0.1-2.9-0.7-3.9-1.7q-0.1-0.2-0.2-0.3c-0.9 1.9-1.5 4-1.9 6.1-0.5 2.4-0.6 4.9-0.3 7.4q0.1 0.8 0.2 1.6l-0.1 0.3c-0.1 0-0.1 0-0.1 0l-0.2-0.2q-0.2-0.8-0.3-1.6h-0.1c-0.5-3.6-0.1-7.3 1-10.7q0-0.1 0-0.2c-3.8 0.2-7.5-2.6-8.5-6.5-0.3-0.8-0.4-1.6-0.5-2.4 0-0.4 0.5-0.6 1.1-0.6 1.3 0 2.4 0.6 3.5 1.2 1.4 0.8 2.7 1.8 3.4 3.2 0.6 1.3 0.8 2.8 1.4 4.1 0.8-2.4 2-4.6 3.3-6.8-1 0-2-0.3-2.9-0.8-3.1-1.8-4.3-6.1-4.1-9 0-0.1 0-1.5 0.8-1.3 0.7 0.2 1.2 0.8 1.8 1.3 1.8 1.7 3.7 3.5 4.5 5.7 0.4 1 0.5 2.2 0.4 3.3 1.6-2.5 3.4-4.9 5.1-7.3-0.3 0-0.5-0.1-0.7-0.1-3.5-0.9-5.5-5.3-4.5-8.8 0.2-0.8 0.7-1.9 1.4-1.2 0.9 1 1.7 2.2 2.5 3.4 0.8 1.2 1.5 2.5 1.8 3.9q0.1 0.9 0.1 1.8 0.1-0.1 0.1-0.1c1-1.4 1.9-2.8 2.6-4.3z"/>
			</g>
			<g id="Layer">
				<path id="Layer" class="s0" d="m105.3 213.7c-0.1 0-0.2-0.2-0.3-0.3v-0.1c-1.4-2.7-2.2-5.7-2.5-8.8l-0.1-0.1v-0.2c0 0 0.1-0.1 0.1-0.1q-0.1-0.2-0.1-0.4 0 0 0-0.1c-1.1-0.6-2.6-0.6-3.9-0.7q-0.4 0-0.9-0.1c-2.2-0.2-4.5-0.5-6.6-1.4q-0.4-0.2-0.9-0.5c0 0-0.9-0.6-0.5-0.9 0.3-0.2 0.4 0 0.7 0 2 0.3 4 0.3 5.9 0.5 2.2 0.3 4.4 1 6.2 2.4q0-0.1 0-0.2-0.1-2 0-4.1c0 0-0.3-0.5-0.6-0.9-1.6-1.7-3.9-2.7-5.8-4.2-1.4-1.1-2.9-2.3-3.8-3.9 0 0 0-0.1 0-0.1q0-0.1 0-0.1-0.1 0-0.1-0.1 0 0 0-0.1c0-0.1 0.1-0.3 0.3-0.3 0.1-0.1 0.3 0.1 0.4 0.2 2.6 1.7 5.5 3 7.9 5.3 0.7 0.7 1.4 1.5 1.8 2.5 0 0 0.1-0.4 0.1-0.8q0.2-2.1 0.6-4.2c-1.5-2.3-3.6-4-5.4-5.9-0.9-1.1-1.9-2.1-2.7-3.2-0.7-0.7-1.2-1.6-1.5-2.6 0-0.1 0.1-0.2 0.1-0.2 0.1-0.2 0.2-0.3 0.5-0.1 0.3 0.2 0.5 0.5 0.8 0.8 2.5 2.1 5.3 4.2 7.1 6.9 0.6 0.9 1.1 1.8 1.3 2.8q0.4-2.3 0.8-4.6l0.1-0.8c0-0.1 0.1-0.1-0.2-0.4q-0.1-0.1-0.1-0.2c-0.1-0.1-0.2-0.2-0.2-0.2-1.1-1.4-2.4-2.5-3.5-3.9-1-1.3-1.9-2.8-2.6-4.3q0 0 0 0c-0.2-0.3-0.3-0.7-0.1-0.9 0.2-0.1 0.5 0.2 0.6 0.4 0 0 0.4 0.4 0.8 0.8 2.2 2.2 4.7 4.4 5.5 7.5l0.1 0.1q0.5-2.8 0.9-5.6v-0.1c-0.1-1.2-0.3-2.4-0.5-3.6-0.3-2.5-0.6-5-0.5-7.5q0-0.7 0.2-1.4l0.1-0.2c0.1-0.1 0.1-0.2 0.3-0.1 0.2 0 0.2 0.3 0.3 0.5 1.5 3.8 2 8 1.3 12-0.3 1.2-0.5 2.4-1 3.5q-0.1 0.3-0.1 0.6c-0.1 0.1-0.1 0.4-0.1 0.4q0-0.1 0-0.1c1.6-2.4 4.1-4 6.6-5.5 0.5-0.3 1.1-0.7 1.6-0.9q0.2 0 0.3 0.1c0.2 0.2 0.1 0.5 0 0.7q-0.1 0.1-0.1 0.2c-1 2.2-3.5 3.6-5.7 5-1.2 0.8-2.3 1.7-3.1 2.8l-0.2 0.5c0.1 0.1 0.1 0.2 0 0.3q-0.3 1.6-0.6 3.2v0.1q0-0.1 0.1-0.2c1-1.7 2.6-3.1 4.3-4.2 1.4-0.7 2.8-1.3 4.3-1.9 0.1-0.1 0.1-0.1 0.3-0.2 0.1-0.1 0.4 0 0.4 0.3 0 0.3-0.1 0.3-0.2 0.5-0.2 0.4-0.5 0.7-0.8 1.1-1.9 2-4 3.7-6.3 5.2-1 0.7-2 1.4-2.6 2.4l-0.1 0.1q-0.2 1.5-0.4 3.1v0.1 0.1c1.2-2.1 3.7-3.4 6-4.6q0.8-0.4 1.5-0.8 0.4-0.2 0.8-0.4 0.4-0.2 0.8-0.4c0.1-0.1 0.4-0.1 0.5 0.2v0.2c0 0.1-0.1 0.1-0.1 0.2-0.4 1.4-1.9 2.4-3.1 3.3-1.7 1.2-3.5 2.2-5.2 3.5-0.6 0.5-1.1 1-1.5 1.7q-0.2 2-0.1 4.1c0 0 0.1-0.4 0.3-0.7 0.8-1.3 2.1-2.3 3.3-3.3 1.6-1.1 3.3-2.1 4.9-3.3 0.2-0.1 0.4-0.2 0.4-0.2 0.1-0.1 0.3-0.1 0.3 0.1 0.1 0.1-0.1 0.4-0.1 0.4-1.9 2.7-4.2 5.1-6.8 7.1-0.8 0.6-1.6 1.1-2.2 1.8v0.1c0.2 3.1 1 6.1 2.4 8.9v0.1c0 0.2 0 0.1 0 0.4 0 0 0.1 0.1-0.1 0.1z"/>
			</g>
			<g id="Layer">
				<path id="Layer" class="s0" d="m130.9 187.4q-0.1-0.1-0.1-0.2 0.1-0.4 0.1-0.9c0.3-1.4 0.9-2.8 1.9-3.9 0.9-1 2.1-1.8 3.2-2.6 0.2-0.1 0.4-0.2 0.5 0.1 0.2 0.3 0.2 0.6 0.1 0.9 0 0 0 0.3 0 0.6-0.3 1.3-0.8 2.7-1.8 3.9-1 1.2-2.5 2-3.9 2.9h-0.1l-0.1 0.1q-0.3 0.3-0.6 0.6c2-0.8 4.3-1.1 6.4-0.5 0.5 0.1 1.1 0.4 1.5 0.8q0 0.1 0 0.1 0 0 0.1 0c0 0.1 0.1 0.2 0 0.4-0.4 0.4-1 0.5-1.6 0.7 0 0-0.4 0.2-0.7 0.3-1.6 0.5-3.5 0.6-5.1-0.1q-0.8-0.4-1.4-1c-1.1 1-2.3 1.9-3.5 2.8 2.2-0.5 4.6-0.2 6.6 0.9 0.5 0.3 0.9 0.7 1.3 1.2q0 0 0 0 0 0 0 0.1 0.1 0 0.1 0 0 0.1 0 0.1c0 0.1 0.1 0.2-0.1 0.3-0.6 0.4-1.2 0.5-1.9 0.6-1.4 0.4-2.9 0.4-4.3-0.1-1-0.4-2-1.1-2.5-2.1q-0.1-0.1-0.2-0.2-0.1 0.1-0.3 0.2c-1.4 1.2-2.7 2.4-3.9 3.8 0.3-0.1 0.4-0.1 0.6-0.1 2-0.3 4.1 0 5.8 0.9 0.7 0.4 1.4 0.9 1.8 1.6q0 0 0 0c0.1 0.2 0.2 0.5 0.2 0.5-0.1 0.3 0 0.1-0.3 0.2-2.1 0.6-4.3 0.6-6.3-0.2-0.9-0.4-1.8-1.1-2.2-2q-0.1-0.1-0.1-0.3-1.4 1.8-2.5 3.8c-0.8 1.6-1.3 3.2-1.6 5q-0.1 0.5-0.2 1.1l-0.2 0.2c0 0 0 0 0-0.1l-0.1-0.1q0-0.6 0.1-1.2c0.4-2.5 1.4-5 2.7-7.1q0.1 0 0.1-0.1c-2.6-0.7-4.4-3.3-4.3-6.2 0-0.6 0.1-1.2 0.2-1.7 0.1-0.3 0.5-0.3 0.8-0.2 0.9 0.3 1.5 0.9 2.1 1.6 0.7 0.8 1.3 1.7 1.5 2.9 0.2 1 0 2 0.1 3 1.1-1.4 2.3-2.7 3.6-3.9-0.7-0.2-1.3-0.6-1.8-1.2-1.6-1.9-1.6-5.1-0.9-7 0.1 0 0.3-1 0.8-0.7 0.4 0.3 0.7 0.8 0.9 1.2 0.9 1.6 1.8 3.2 1.8 4.9 0.1 0.8-0.1 1.6-0.4 2.3 1.6-1.3 3.2-2.6 4.8-3.9q-0.2-0.1-0.4-0.2c-2.1-1.3-2.6-4.7-1.2-6.9 0.3-0.5 0.8-1.2 1.1-0.6 0.4 0.9 0.7 1.9 1 2.8 0.3 1 0.5 2.1 0.4 3.1q-0.1 0.6-0.3 1.3 0.1-0.1 0.1-0.1 1.4-1.1 2.6-2.4z"/>
			</g>
			<g id="Layer">
				<path id="Layer" fill-rule="evenodd" class="s1" d="m217.3 298c0 0 6.6-15.8 18.9-11.7 6.7 2.3 3.5 10.8-3.2 8.5-4-1.3-8.1-3-15.7 3.2z"/>
			</g>
			<g id="Layer">
				<path id="Layer" fill-rule="evenodd" class="s13" d="m213.2 294.9c0 0-4.6-17.8 8.6-24 9.3-4.5 13.4 5.1 6.1 8.3-4.3 2-12.9 4.4-14.7 15.7z"/>
			</g>
			<g id="Layer">
				<g id="Layer">
					<path id="Layer" class="s14" d="m159.2 267.2c0 0 2-6.2 6.9-6.8 1.8-0.2-2.2 1.9 0 8.9z"/>
				</g>
				<g id="Layer">
					<path id="Layer" class="s14" d="m143.7 274.2c-1.2 1.6-2.4 5.5-2.4 6.3 0 1 1.4 5.3 2.6 5.5 1.3 0.2 4-2 4.7-2.8 0.6-0.8-3.1-7.8-2.9-8.3 0 0-1.7-1-2-0.7z"/>
				</g>
				<g id="Layer">
					<path id="Layer" class="s14" d="m132.7 274c-0.4-1.5 2.8-12.4 28.1-7.7 14.1 3 21.7 19.3 23 28.2 6.8 0.2 10.4 5 10.4 5 0 0-12.2-3.3-16.9 8.5-0.6-7 3.9-12.3 3.9-12.3 0 0-0.6-5.1-7.8-7.5-4.7-1.9-22.2-5.4-24.9-7.5-2.8-2-15-3.8-15.8-6.7z"/>
				</g>
				<g id="Layer">
					<path id="Layer" class="s15" d="m173 286.4c-4.4-1.4-4.6-3-3.4-3.2 2.2-0.5 7 3.3 6.9 1.3-0.1-1.9-4.6-7.1-8-6.3-3.4 0.7-3 4.1-5.7 5.1-6.7 2.3-14.8-10.2-19.6-11.6-3.8-1.1-8.6 1.6-10.3 2.7 0.1 2.4 11.4 7.1 14.4 8.1 4.1 1.4 21 2.6 29.5 7.3-0.5-1.3-1.6-2.7-3.8-3.4z"/>
				</g>
				<g id="Layer">
					<path id="Layer" class="s15" d="m152.4 269.1c0 0-2.9 0.1-4.1-0.3-1.2-0.5-4.6 0-4.7 0.6-0.2 0.6 0 1.3 2.4 2.1 2.4 0.7 4.2 0.3 5.2 0.3 1.9 0 4.5-3.1 1.2-2.7z"/>
				</g>
				<g id="Layer">
					<path id="Layer" class="s14" d="m148.4 274.2c-1.1 1.4 0 6.8 0.4 7.6 0.5 0.8 3.7 3.6 4.9 3.1 1.1-0.5 2.5-3.9 2.7-5 0.1-1.1-6.3-4.8-6.4-5.3z"/>
				</g>
				<g id="Layer">
					<path id="Layer" class="s14" d="m146 270.3c-0.2 0.4-0.7 0.6-1 0.4-0.4-0.2-0.6-0.7-0.4-1.2 0.2-0.4 0.7-0.6 1.1-0.3 0.4 0.2 0.5 0.7 0.3 1.1z"/>
				</g>
			</g>
			<g id="Layer">
				<g id="Layer">
					<path id="Layer" class="s16" d="m419.5 231.7q0-0.3-0.1-0.5-0.9 0.2-1.8-0.1l-1.1 49.9h4.1z"/>
				</g>
				<g id="Layer">
					<path id="Layer" class="s17" d="m416.8 227c0.2-0.5 0.6-0.9 1.1-1q0-0.8 0-2c-1.3 0.2-2.4 1-3 2.2q0 0.2-0.1 0.5 1.1 0.2 1.9 0.4 0-0.1 0.1-0.1z"/>
				</g>
				<g id="Layer">
					<path id="Layer" class="s17" d="m419.3 226.3c0.6 0.5 0.8 1.2 0.6 1.9q-0.1 0.1-0.1 0.1 0.7 0.4 1.7 1 0.1-0.1 0.2-0.3c0.6-1.5 0.1-3.1-1-4.1q-0.8 0.8-1.4 1.4z"/>
				</g>
				<g id="Layer">
					<path id="Layer" class="s17" d="m419.1 231.2q-0.4-1.1-0.6-1.9-0.4 0-0.8-0.1-0.5-0.3-0.8-0.7-0.7 0.5-1.7 1c0.4 0.6 1 1.2 1.7 1.5q0.3 0.1 0.5 0.1 0.9 0.2 1.7 0.1z"/>
				</g>
				<g id="Layer">
					<path id="Layer" class="s18" d="m417.9 226q0.5-0.1 1 0.1 0.3 0.1 0.4 0.2 0.6-0.6 1.4-1.4c2-2.4 4.9-6.3 7.2-11.9 3-7.4 3.1-17.3 3.1-17.3 0 0-6 6-10.1 15.2-2.3 5.3-2.9 10.1-3 13.1q0 1.2 0 2z"/>
				</g>
				<g id="Layer">
					<path id="Layer" class="s18" d="m418.5 229.3q0.2 0.8 0.6 1.9 0 0.1 0.1 0.3c1 3 3 7.2 6.5 11.8 4.8 6.3 13.3 11.4 13.3 11.4 0 0-2.1-8.2-8-16.4-3.3-4.5-6.9-7.4-9.5-9q-1-0.6-1.7-1c-0.2 0.6-0.7 0.9-1.3 1z"/>
				</g>
				<g id="Layer">
					<path id="Layer" class="s18" d="m416.7 227.1q-0.8-0.2-1.9-0.4c-3-0.7-7.9-1.3-14.1-0.5-7.9 1-16.5 5.8-16.5 5.8 0 0 8.2 2.3 18.2 1.3 5.7-0.6 10.1-2.4 12.8-3.8q1-0.5 1.7-1c-0.3-0.4-0.3-0.9-0.2-1.4z"/>
				</g>
				<g id="Layer">
					<path id="Layer" class="s15" d="m419.8 228.3q0 0 0.1-0.1c0.2-0.7 0-1.4-0.6-1.9q-0.1-0.1-0.4-0.2-0.5-0.2-1-0.1c-0.5 0.1-0.9 0.5-1.1 1q-0.1 0-0.1 0.1c-0.1 0.5-0.1 1 0.2 1.4q0.3 0.4 0.8 0.7 0.4 0.1 0.8 0.1c0.6-0.1 1.1-0.4 1.3-1z"/>
				</g>
			</g>
			<g id="Layer">
				<g id="Layer">
					<path id="Layer" class="s16" d="m374.8 244.4q-0.1-0.3-0.1-0.6-1 0.2-1.9-0.1l-1.2 52h4.4z"/>
				</g>
				<g id="Layer">
					<path id="Layer" class="s17" d="m374.2 241.9c0.6 0.1 1.1 0.4 1.4 0.8q0.8-0.3 1.9-0.7c-0.6-1.2-1.8-2-3.2-2.1q-0.2 0-0.4 0 0.1 1.2 0.1 2 0.1 0 0.2 0z"/>
				</g>
				<g id="Layer">
					<path id="Layer" class="s17" d="m375.7 244.3c-0.2 0.7-0.9 1.2-1.7 1.1q0 0-0.1 0-0.1 0.9-0.4 2 0.2 0 0.4 0c1.7 0.1 3.1-0.9 3.7-2.3q-1.1-0.5-1.9-0.8z"/>
				</g>
				<g id="Layer">
					<path id="Layer" class="s17" d="m370.9 245.6q0.9-0.7 1.7-1.2-0.2-0.4-0.2-0.8 0-0.6 0.3-1-0.6-0.5-1.5-1.3c-0.5 0.6-0.8 1.3-0.9 2.2q0 0.2 0.1 0.5 0 0.9 0.5 1.6z"/>
				</g>
				<g id="Layer">
					<path id="Layer" class="s18" d="m375.6 242.7q0.3 0.5 0.3 1.1-0.1 0.2-0.2 0.5 0.8 0.3 1.9 0.8c3 1.2 7.8 2.7 14.2 3 8.2 0.5 18-2.7 18-2.7 0 0-7.9-4-18.3-4.8-6.1-0.6-11 0.5-14 1.4q-1.1 0.4-1.9 0.7z"/>
				</g>
				<g id="Layer">
					<path id="Layer" class="s18" d="m372.6 244.4q-0.8 0.5-1.7 1.2-0.2 0.2-0.3 0.3c-2.6 2-6.1 5.4-9.4 10.4-4.6 6.9-6.7 17-6.7 17 0 0 7.4-4.9 13.4-13.5 3.3-4.7 4.9-9.3 5.6-12.4q0.3-1.1 0.4-2c-0.6-0.1-1.1-0.4-1.3-1z"/>
				</g>
				<g id="Layer">
					<path id="Layer" class="s18" d="m374 241.9q0-0.8-0.1-2c-0.4-3.2-1.5-8.2-4.4-14-3.7-7.4-11.3-14.3-11.3-14.3 0 0 0.5 8.8 4.9 18.3 2.5 5.5 5.8 9.2 8.1 11.4q0.9 0.8 1.5 1.3c0.3-0.4 0.8-0.6 1.3-0.7z"/>
				</g>
				<g id="Layer">
					<path id="Layer" class="s15" d="m373.9 245.4q0.1 0 0.1 0c0.8 0.1 1.5-0.4 1.7-1.1q0.1-0.3 0.2-0.5 0-0.6-0.3-1.1c-0.3-0.4-0.8-0.7-1.4-0.8q-0.1 0-0.2 0c-0.5 0.1-1 0.3-1.3 0.7q-0.3 0.4-0.3 1 0 0.4 0.2 0.8c0.2 0.6 0.7 0.9 1.3 1z"/>
				</g>
			</g>
			<g id="Layer">
				<path id="Layer" class="s19" d="m258.2 271.9h10.6c1 0 1.8 0.4 2.5 1.1 0.5-1.3 0.8-3.1 0.8-5.2 0-8.5 17.2-14.5 17.2-34.4 0-15.9-12.9-28.8-28.8-28.8-15.8 0-28.7 12.9-28.7 28.8 0 20.3 17.2 26.3 17.2 34.4 0 1.9 0.2 3.5 0.7 4.8 0.6-0.4 1.3-0.7 2-0.7z"/>
			</g>
			<path id="Layer" fill-rule="evenodd" class="s15" d="m259.1 207.1h0.2 0.2 0.2l0.1 0.1h0.2 0.2 0.2l0.1 0.1h0.2l0.2 0.1 0.1 0.1 0.2 0.1 0.2 0.1 0.1 0.1 0.1 0.1 0.2 0.1 0.1 0.2 0.1 0.1 0.1 0.2 0.1 0.1 0.1 0.2 0.1 0.1v0.2l0.1 0.2v0.1 0.2l0.1 0.2v0.2 0.2 0.2l-0.1 0.1v0.2l-0.1 0.2v0.2l-0.1 0.1-0.1 0.2-0.1 0.1-0.1 0.2-0.1 0.1-0.1 0.2-0.1 0.1-0.1 0.1-0.2 0.1-0.1 0.1-0.2 0.1-0.1 0.1-0.2 0.1-0.2 0.1h-0.2l-0.1 0.1h-0.2-0.2-0.2-0.1-0.2-0.1-0.2-0.1-0.1-0.2-0.1-0.1-0.1-0.2-0.1-0.1-0.2-0.1l-0.1 0.1h-0.2-0.1-0.1-0.1-0.2l-0.1 0.1h-0.1-0.1-0.2-0.1l-0.1 0.1h-0.1-0.2l-0.1 0.1h-0.1-0.1-0.2l-0.1 0.1h-0.1l-0.1 0.1h-0.1-0.2l-0.1 0.1h-0.1l-0.1 0.1h-0.2-0.1l-0.1 0.1h-0.1l-0.1 0.1h-0.2l-0.1 0.1h-0.1l-0.1 0.1h-0.1l-0.1 0.1-0.2 0.1h-0.1l-0.1 0.1h-0.1l-0.1 0.1-0.1 0.1h-0.2l-0.1 0.1h-0.1l-0.1 0.1-0.1 0.1h-0.1l-0.1 0.1-0.2 0.1-0.1 0.1h-0.1l-0.1 0.1-0.1 0.1-0.1 0.1h-0.1l-0.1 0.1-0.1 0.1-0.2 0.1h-0.1l-0.1 0.1-0.1 0.1-0.1 0.1-0.1 0.1-0.1 0.1h-0.1l-0.1 0.1-0.1 0.1-0.1 0.1-0.1 0.1-0.1 0.1-0.1 0.1-0.1 0.1-0.1 0.1-0.1 0.1-0.1 0.1-0.1 0.1-0.1 0.1h-0.1l-0.1 0.1-0.1 0.1-0.1 0.1-0.1 0.1-0.1 0.2-0.1 0.1-0.1 0.1-0.1 0.1-0.1 0.1-0.1 0.1-0.1 0.1-0.1 0.1-0.1 0.1-0.1 0.1-0.1 0.1-0.1 0.1v0.1l-0.1 0.1-0.1 0.2-0.1 0.1-0.1 0.1-0.1 0.1-0.1 0.1-0.1 0.1v0.1l-0.1 0.2-0.1 0.1-0.1 0.1-0.1 0.1v0.1l-0.1 0.2-0.1 0.1-0.1 0.1-0.1 0.1v0.1l-0.1 0.2-0.1 0.1-0.1 0.1v0.1l-0.1 0.2-0.1 0.1-0.1 0.1v0.1l-0.1 0.2-0.1 0.1v0.1l-0.1 0.2-0.1 0.1v0.1l-0.1 0.1-0.1 0.2v0.1l-0.1 0.1-0.1 0.2v0.1l-0.1 0.1-0.1 0.2v0.1l-0.1 0.1v0.2l-0.1 0.1v0.1l-0.1 0.2-0.1 0.1v0.1l-0.1 0.2v0.1l-0.1 0.1v0.2l-0.1 0.1v0.1l-0.1 0.2v0.1l-0.1 0.2v0.1 0.1l-0.1 0.2v0.1l-0.1 0.1v0.2 0.1l-0.1 0.2v0.1l-0.1 0.1v0.2 0.1l-0.1 0.1v0.2 0.1l-0.1 0.2v0.1 0.1l-0.1 0.2v0.1 0.1 0.2l-0.1 0.1v0.2 0.1 0.1 0.2l-0.1 0.1v0.2 0.1 0.1 0.2 0.1l-0.1 0.1v0.2 0.1 0.1 0.2 0.1 0.2 0.1 0.1 0.2 0.1 0.1 0.2 0.1 0.1 0.2 0.1 0.1 0.2 0.1 0.1 0.2 0.1 0.1 0.2 0.1 0.1 0.1l0.1 0.2v0.1 0.1 0.2 0.1 0.1l0.1 0.1v0.2 0.1 0.1l0.1 0.1v0.2 0.1 0.1l0.1 0.1v0.1 0.2l0.1 0.1v0.1 0.1l0.1 0.1v0.2 0.1l0.1 0.1v0.1 0.1l0.1 0.2v0.1l0.1 0.2v0.2 0.2l0.1 0.2v0.1l-0.1 0.2v0.2 0.2l-0.1 0.1v0.2l-0.1 0.2-0.1 0.1-0.1 0.2-0.1 0.2-0.1 0.1-0.1 0.1-0.1 0.2-0.1 0.1-0.2 0.1-0.1 0.1-0.2 0.1-0.1 0.1-0.2 0.1h-0.2l-0.1 0.1h-0.2l-0.2 0.1h-0.2-0.2-0.1-0.2-0.2l-0.2-0.1h-0.1l-0.2-0.1h-0.2l-0.1-0.1-0.2-0.1-0.2-0.1-0.1-0.1-0.1-0.1-0.2-0.2-0.1-0.1-0.1-0.1-0.1-0.2-0.1-0.1-0.1-0.2-0.1-0.1v-0.2l-0.1-0.2-0.1-0.1v-0.2l-0.1-0.2v-0.1l-0.1-0.2v-0.2l-0.1-0.2v-0.1l-0.1-0.2v-0.2-0.1l-0.1-0.2v-0.2l-0.1-0.2v-0.1-0.2l-0.1-0.2v-0.1-0.2-0.2l-0.1-0.2v-0.1-0.2-0.2l-0.1-0.2v-0.1-0.2-0.2-0.2-0.1l-0.1-0.2v-0.2-0.2-0.2-0.1-0.2-0.2-0.2-0.1-0.2-0.2-0.2-0.1-0.2-0.2-0.2-0.2-0.1-0.2l0.1-0.2v-0.2-0.1-0.2-0.2-0.2l0.1-0.1v-0.2-0.2-0.2l0.1-0.2v-0.1-0.2-0.2l0.1-0.2v-0.1-0.2l0.1-0.2v-0.2-0.1l0.1-0.2v-0.2l0.1-0.2v-0.1-0.2l0.1-0.2v-0.2l0.1-0.1v-0.2l0.1-0.2v-0.2l0.1-0.1v-0.2l0.1-0.2v-0.1l0.1-0.2v-0.2l0.1-0.2v-0.1l0.1-0.2 0.1-0.2v-0.1l0.1-0.2v-0.2l0.1-0.1 0.1-0.2v-0.2l0.1-0.2 0.1-0.1v-0.2l0.1-0.2 0.1-0.1 0.1-0.2v-0.1l0.1-0.2 0.1-0.2v-0.1l0.1-0.2 0.1-0.2 0.1-0.1 0.1-0.2v-0.2l0.1-0.1 0.1-0.2 0.1-0.1 0.1-0.2 0.1-0.2 0.1-0.1v-0.2l0.1-0.1 0.1-0.2 0.1-0.1 0.1-0.2 0.1-0.2 0.1-0.1 0.1-0.2 0.1-0.1 0.1-0.2 0.1-0.1 0.1-0.2 0.1-0.1 0.1-0.2 0.1-0.1 0.1-0.2 0.1-0.1 0.1-0.2 0.1-0.1 0.1-0.2 0.1-0.1 0.1-0.2 0.1-0.1 0.1-0.1 0.1-0.2 0.1-0.1 0.2-0.2 0.1-0.1 0.1-0.1 0.1-0.2 0.1-0.1 0.1-0.2 0.2-0.1 0.1-0.1 0.1-0.2 0.1-0.1 0.1-0.1 0.2-0.2 0.1-0.1 0.1-0.1 0.1-0.2 0.2-0.1 0.1-0.1 0.1-0.1 0.1-0.2 0.2-0.1 0.1-0.1 0.1-0.1 0.2-0.2 0.1-0.1 0.1-0.1 0.2-0.1 0.1-0.1 0.1-0.2 0.2-0.1 0.1-0.1 0.1-0.1 0.2-0.1 0.1-0.1 0.2-0.1 0.1-0.2 0.2-0.1 0.1-0.1 0.1-0.1 0.2-0.1 0.1-0.1 0.2-0.1 0.1-0.1 0.2-0.1 0.1-0.1 0.2-0.1 0.1-0.1 0.2-0.1 0.1-0.1 0.2-0.1 0.1-0.1 0.2-0.1 0.1-0.1h0.2l0.2-0.1 0.1-0.1 0.2-0.1 0.1-0.1 0.2-0.1h0.2l0.1-0.1 0.2-0.1 0.1-0.1 0.2-0.1h0.2l0.1-0.1 0.2-0.1h0.2l0.1-0.1 0.2-0.1h0.2l0.2-0.1 0.1-0.1h0.2l0.2-0.1h0.1l0.2-0.1 0.2-0.1h0.2l0.1-0.1h0.2l0.2-0.1h0.2 0.1l0.2-0.1h0.2l0.2-0.1h0.2 0.1l0.2-0.1h0.2 0.2l0.2-0.1h0.2 0.1 0.2l0.2-0.1h0.2 0.2 0.2 0.2 0.2l0.1-0.1h0.2 0.2 0.2 0.2 0.2z"/>
			<path id="Layer" fill-rule="evenodd" class="s15" d="m244.1 245.7h0.1 0.1 0.1 0.1 0.1 0.1l0.1 0.1h0.1 0.1 0.1v0.1h0.1l0.1 0.1h0.1 0.1v0.1h0.1v0.1h0.1 0.1v0.1h0.1v0.1h0.1v0.1h0.1v0.1h0.1v0.1l0.1 0.1 0.1 0.1v0.1h0.1v0.1l0.1 0.1v0.1l0.1 0.1v0.1l0.1 0.1v0.2l0.1 0.1v0.1 0.1l0.1 0.1v0.1l0.1 0.2v0.1l0.1 0.1v0.1l0.1 0.1v0.1l0.1 0.1v0.1l0.1 0.1v0.1l0.1 0.1v0.1l0.1 0.1 0.1 0.1 0.1 0.1v0.1l0.1 0.1v0.1l0.1 0.1 0.1 0.1 0.1 0.1v0.1l0.1 0.1h0.1v0.1 0.1h0.1v0.1l0.1 0.1v0.1l0.1 0.1v0.1h0.1v0.1 0.1 0.1l0.1 0.1v0.1 0.1 0.1 0.1l0.1 0.1v0.1 0.1 0.1 0.1 0.1h-0.1v0.1 0.1 0.1 0.1 0.1l-0.1 0.1v0.1 0.1h-0.1v0.1 0.1l-0.1 0.1v0.1h-0.1v0.1l-0.1 0.1v0.1h-0.1v0.1h-0.1v0.1l-0.1 0.1-0.1 0.1h-0.1v0.1h-0.1l-0.1 0.1h-0.1v0.1h-0.1l-0.1 0.1h-0.1l-0.1 0.1h-0.1-0.1v0.1h-0.1-0.1-0.1-0.1v0.1h-0.1-0.1-0.1-0.1-0.1-0.1-0.1-0.1-0.1-0.1v-0.1h-0.1-0.1-0.1-0.1v-0.1h-0.1-0.1l-0.1-0.1h-0.1-0.1v-0.1h-0.1l-0.1-0.1h-0.1v-0.1h-0.1l-0.1-0.1-0.1-0.1-0.1-0.1-0.1-0.1v-0.1l-0.2-0.1-0.1-0.1-0.1-0.2-0.1-0.1-0.1-0.2-0.1-0.1-0.1-0.2-0.1-0.1-0.1-0.2-0.1-0.1-0.1-0.2-0.1-0.1-0.1-0.2-0.1-0.1v-0.2l-0.1-0.1-0.1-0.2-0.1-0.1v-0.2l-0.1-0.1-0.1-0.2-0.1-0.2v-0.1l-0.1-0.2-0.1-0.1v-0.2l-0.1-0.1v-0.2l-0.1-0.1-0.1-0.2v-0.1l-0.1-0.2v-0.1l-0.1-0.1v-0.1-0.1-0.1-0.1-0.1h-0.1v-0.1-0.1-0.1-0.1-0.1l0.1-0.1v-0.1-0.1-0.1-0.1l0.1-0.1v-0.1-0.1l0.1-0.1v-0.1l0.1-0.1v-0.1l0.1-0.1v-0.1l0.1-0.1 0.1-0.1 0.1-0.1v-0.1h0.1v-0.1h0.1l0.1-0.1 0.1-0.1h0.1v-0.1h0.1l0.1-0.1h0.1l0.1-0.1h0.1l0.1-0.1h0.1 0.1 0.1v-0.1h0.1 0.1 0.1 0.1 0.1 0.1 0.1z"/>
			<g id="Layer">
				<path id="Layer" class="s15" d="m399.7 143.2q-0.6 0-1.1 0c-2 0-3.9 0.4-5.6 1.1-3.6 1.3-7.5 0-9.6-3.4-3.7-5.8-9.8-9.6-16.7-9.6-6.8 0-12.7 3.7-16.4 9.3-2.1 3.2-5.8 4.6-9.2 3.4q-2.4-0.8-5.1-0.8-0.5 0-1.1 0c-4.7 0.4-7.2 4.1-7.5 8.2h79.8c-0.3-4.1-2.8-7.8-7.5-8.2z"/>
			</g>
			<g id="Layer">
				<path id="Layer" class="s15" d="m116.7 260.3q-0.5-0.1-1.1-0.1c-2 0-3.9 0.4-5.6 1.1-3.5 1.4-7.4 0.1-9.6-3.3-3.6-5.9-9.7-9.7-16.6-9.7-6.8 0-12.8 3.7-16.5 9.4-2.1 3.2-5.8 4.6-9.2 3.4q-2.4-0.8-5-0.9-0.6 0-1.2 0.1c-4.7 0.3-7.2 4.1-7.5 8.1h79.8c-0.3-4-2.7-7.8-7.5-8.1z"/>
			</g>
			<g id="Layer">
				<path id="Layer" class="s15" d="m357.1 108.3q-0.6 0-1.1 0c-1.8 0-3.5 0.3-5.1 1-3.2 1.2-6.8 0.1-8.8-3.1-3.3-5.3-8.9-8.8-15.2-8.8-6.2 0-11.7 3.4-15.1 8.5-1.9 3-5.3 4.3-8.4 3.2q-2.2-0.8-4.6-0.8-0.5 0-1.1 0c-4.3 0.4-6.5 3.8-6.8 7.5h73c-0.3-3.7-2.5-7.1-6.8-7.5z"/>
			</g>
			<g id="Layer">
				<path id="Layer" class="s15" d="m166.6 217.9q-0.5 0-1 0c-1.8 0-3.5 0.3-5.1 0.9-3.3 1.3-6.8 0.1-8.8-3-3.4-5.3-8.9-8.9-15.3-8.9-6.2 0-11.7 3.4-15 8.6-2 3-5.3 4.2-8.5 3.2q-2.1-0.8-4.6-0.8-0.5 0-1 0c-4.3 0.3-6.6 3.8-6.9 7.4h73.1c-0.3-3.6-2.6-7.1-6.9-7.4z"/>
			</g>
			<g id="Layer">
				<path id="Layer" class="s4" d="m260.5 295.4c4 0 7.4-2.8 8.3-6.5h-16.5c0.9 3.7 4.3 6.5 8.2 6.5z"/>
			</g>
			<g id="Layer">
				<path id="Layer" class="s12" d="m259 277.9h10.4q0.8 0 1.4 0.3c0.9-0.6 1.4-1.6 1.4-2.7v-0.1c0-0.9-0.3-1.8-0.9-2.4-0.7-0.7-1.5-1.1-2.5-1.1h-6.6v-23.6c2-6.6 9.2-4.6 11.5-23.1 0 0-11.2 6.6-12.7 18.5 0 0-0.4-5.8-11.2-11.6 0 0 3.2 6.6 4 10.4 0.8 3.9 4.4 5.8 4.4 5.8v23.6h-6.5c-0.7 0-1.4 0.3-2 0.7-0.9 0.6-1.5 1.6-1.5 2.8v0.1c0 1.2 0.7 2.3 1.7 2.9 0.5-0.3 1.1-0.5 1.8-0.5z"/>
			</g>
			<g id="Layer">
				<path id="Layer" class="s4" d="m272.9 280.9c0-1-0.9-2.1-2.1-2.7q-0.6-0.3-1.4-0.3h-7.3-3.1-7.3c-0.7 0-1.3 0.2-1.8 0.5-1 0.6-1.7 1.6-1.7 2.5 0 1.4 1.6 3 3.5 3h17.7c1.9 0 3.5-1.6 3.5-3z"/>
			</g>
			<g id="Layer">
				<path id="Layer" class="s12" d="m251.7 283.9c-1.9 0-3.5 1.1-3.5 2.5 0 1.4 1.6 2.5 3.5 2.5h17.7c1.9 0 3.5-1.1 3.5-2.5 0-1.4-1.6-2.5-3.5-2.5z"/>
			</g>
		</g>
	</g>
	<g id="DESIGNED_BY_FREEPIK">
		<g id="Layer">
			<g id="XMLID_29_">
				<g id="XMLID_48_">
				</g>
			</g>
			<g id="Layer">
			</g>
		</g>
	</g>
</svg>